M48
; DRILL file {KiCad 8.0.1-8.0.1-1~ubuntu22.04.1} date 2024-08-21T15:32:17+0700
; FORMAT={-:-/ absolute / metric / decimal}
; #@! TF.CreationDate,2024-08-21T15:32:17+07:00
; #@! TF.GenerationSoftware,Kicad,Pcbnew,8.0.1-8.0.1-1~ubuntu22.04.1
; #@! TF.FileFunction,Plated,1,2,PTH
FMAT,2
METRIC
; #@! TA.AperFunction,Plated,PTH,ViaDrill
T1C0.300
; #@! TA.AperFunction,Plated,PTH,ViaDrill
T2C0.400
; #@! TA.AperFunction,Plated,PTH,ComponentDrill
T3C0.700
; #@! TA.AperFunction,Plated,PTH,ComponentDrill
T4C0.750
; #@! TA.AperFunction,Plated,PTH,ComponentDrill
T5C0.800
; #@! TA.AperFunction,Plated,PTH,ComponentDrill
T6C0.900
; #@! TA.AperFunction,Plated,PTH,ComponentDrill
T7C0.990
; #@! TA.AperFunction,Plated,PTH,ComponentDrill
T8C1.000
; #@! TA.AperFunction,Plated,PTH,ComponentDrill
T9C1.100
; #@! TA.AperFunction,Plated,PTH,ComponentDrill
T10C1.110
; #@! TA.AperFunction,Plated,PTH,ComponentDrill
T11C1.200
; #@! TA.AperFunction,Plated,PTH,ComponentDrill
T12C1.300
; #@! TA.AperFunction,Plated,PTH,ComponentDrill
T13C1.600
; #@! TA.AperFunction,Plated,PTH,ComponentDrill
T14C1.800
; #@! TA.AperFunction,Plated,PTH,ComponentDrill
T15C2.000
%
G90
G05
T1
X23.007Y-139.053
X23.876Y-138.684
X24.003Y-49.403
X25.547Y-49.476
X27.432Y-82.296
X28.092Y-72.187
X28.194Y-74.93
X29.661Y-49.119
X30.607Y-130.683
X33.782Y-43.434
X34.392Y-44.856
X37.266Y-106.426
X37.49Y-112.776
X38.278Y-82.944
X38.298Y-102.616
X38.952Y-107.823
X38.989Y-97.028
X39.028Y-77.607
X39.798Y-102.667
X40.132Y-43.434
X41.275Y-151.003
X43.469Y-49.051
X44.298Y-49.651
X47.955Y-58.725
X47.955Y-59.487
X47.955Y-60.147
X48.717Y-58.725
X48.717Y-59.487
X48.717Y-60.147
X49.479Y-58.725
X49.479Y-59.487
X49.479Y-60.147
X50.241Y-58.725
X50.241Y-59.487
X50.241Y-60.147
X51.003Y-58.725
X51.003Y-59.487
X51.003Y-60.147
X51.765Y-58.725
X51.765Y-59.487
X51.765Y-60.147
X52.527Y-58.725
X52.527Y-59.487
X52.527Y-60.147
X67.371Y-49.337
X68.782Y-49.276
X76.203Y-42.529
X77.216Y-44.602
X111.887Y-145.415
X113.665Y-150.495
X124.587Y-150.368
T2
X20.955Y-37.846
X20.955Y-38.608
X21.717Y-37.846
X21.717Y-38.608
X22.479Y-37.846
X22.479Y-38.608
X23.241Y-37.846
X23.241Y-38.608
X26.162Y-45.974
X26.67Y-32.004
X26.67Y-32.766
X26.924Y-45.03
X27.178Y-79.883
X27.432Y-32.004
X27.432Y-32.766
X28.575Y-44.323
X29.591Y-43.83
X30.48Y-133.858
X30.988Y-32.004
X30.988Y-32.766
X31.496Y-29.21
X31.496Y-29.972
X31.496Y-30.734
X31.75Y-32.004
X31.75Y-32.766
X32.258Y-29.21
X32.258Y-29.972
X32.258Y-30.734
X32.766Y-52.959
X32.766Y-53.848
X32.766Y-59.055
X32.766Y-59.944
X33.02Y-29.21
X33.02Y-29.972
X33.02Y-30.734
X33.782Y-29.21
X33.782Y-29.972
X33.782Y-30.734
X34.29Y-32.004
X34.29Y-32.766
X34.544Y-29.21
X34.544Y-29.972
X34.544Y-30.734
X34.976Y-46.643
X35.052Y-32.004
X35.052Y-32.766
X35.687Y-58.801
X36.068Y-58.039
X36.449Y-44.602
X36.449Y-57.277
X37.207Y-105.029
X38.862Y-32.004
X38.862Y-32.766
X38.952Y-145.325
X39.624Y-32.004
X39.624Y-32.766
X42.672Y-37.846
X42.672Y-38.608
X43.434Y-37.846
X43.434Y-38.608
X44.196Y-37.846
X44.196Y-38.608
X44.577Y-72.517
X44.577Y-73.406
X44.958Y-37.846
X44.958Y-38.608
X45.466Y-72.517
X45.466Y-73.406
X46.355Y-72.517
X46.355Y-73.406
X47.244Y-72.517
X47.244Y-73.406
X64.262Y-37.885
X64.262Y-38.608
X65.024Y-37.885
X65.024Y-38.608
X65.786Y-37.885
X65.786Y-38.608
X66.548Y-37.885
X66.548Y-38.608
X70.084Y-45.727
X70.104Y-32.004
X70.104Y-32.766
X70.866Y-32.004
X70.866Y-32.766
X71.027Y-52.109
X71.038Y-45.119
X71.904Y-44.519
X73.05Y-44.062
X73.66Y-49.327
X74.168Y-32.004
X74.168Y-32.766
X74.676Y-29.21
X74.676Y-29.972
X74.676Y-30.734
X74.93Y-32.004
X74.93Y-32.766
X75.438Y-29.21
X75.438Y-29.972
X75.438Y-30.734
X76.2Y-29.21
X76.2Y-29.972
X76.2Y-30.734
X76.962Y-29.21
X76.962Y-29.972
X76.962Y-30.734
X76.994Y-42.002
X77.724Y-29.21
X77.724Y-29.972
X77.724Y-30.734
X77.724Y-32.004
X77.724Y-32.766
X78.011Y-45.644
X78.486Y-32.004
X78.486Y-32.766
X79.883Y-40.64
X80.391Y-39.878
X81.788Y-32.004
X81.788Y-32.766
X82.55Y-32.004
X82.55Y-32.766
X83.185Y-54.483
X83.185Y-55.626
X83.312Y-56.642
X85.09Y-114.427
X85.09Y-115.951
X85.09Y-117.475
X85.979Y-37.846
X85.979Y-38.608
X86.741Y-37.846
X86.741Y-38.608
X87.503Y-37.846
X87.503Y-38.608
X88.265Y-37.846
X88.265Y-38.608
X88.392Y-92.329
X88.519Y-81.153
X89.662Y-58.42
X89.713Y-81.585
X89.764Y-103.886
X91.948Y-121.564
X91.999Y-92.507
X94.107Y-25.019
X98.298Y-41.275
X100.711Y-20.32
X106.477Y-141.834
X117.475Y-147.165
X117.729Y-137.541
X120.777Y-139.827
X121.031Y-147.165
X141.224Y-131.572
X141.224Y-132.588
X141.224Y-133.604
X141.224Y-134.62
X141.224Y-135.636
X141.224Y-136.652
X141.224Y-137.668
X141.224Y-138.684
X142.24Y-131.572
X142.24Y-132.588
X142.24Y-133.604
X142.24Y-134.62
X142.24Y-135.636
X142.24Y-136.652
X142.24Y-137.668
X142.24Y-138.684
X143.256Y-131.572
X143.256Y-132.588
X143.256Y-133.604
X143.256Y-134.62
X143.256Y-135.636
X143.256Y-136.652
X143.256Y-137.668
X143.256Y-138.684
T3
X97.105Y-123.038
X102.058Y-67.31
X102.185Y-123.038
X107.138Y-67.31
X129.159Y-123.063
X131.471Y-46.228
X134.239Y-123.063
X136.551Y-46.228
T4
X80.132Y-98.552
X87.752Y-98.552
T5
X30.594Y-135.819
X30.594Y-138.359
X30.594Y-140.899
X30.594Y-143.439
X30.594Y-145.979
X30.594Y-148.519
X35.446Y-135.819
X35.446Y-138.359
X35.446Y-140.899
X35.446Y-143.439
X35.446Y-145.979
X35.446Y-148.519
X49.517Y-135.819
X49.517Y-138.359
X49.517Y-140.899
X49.517Y-143.439
X49.517Y-145.979
X49.517Y-148.519
X54.369Y-135.819
X54.369Y-138.359
X54.369Y-140.899
X54.369Y-143.439
X54.369Y-145.979
X54.369Y-148.519
X84.587Y-103.896
X84.587Y-111.516
X87.127Y-103.896
X87.127Y-111.516
X95.626Y-26.279
X95.626Y-33.899
X98.166Y-26.279
X98.166Y-33.899
X101.595Y-26.279
X101.595Y-33.899
X104.135Y-26.279
X104.135Y-33.899
X107.424Y-26.279
X107.424Y-33.899
X109.964Y-26.279
X109.964Y-33.899
T6
X72.664Y-149.565
X75.204Y-149.565
T7
X15.174Y-151.941
X19.674Y-151.941
T8
X24.257Y-110.221
X24.257Y-112.761
X24.257Y-115.301
X84.836Y-60.36
X84.836Y-65.36
X111.588Y-39.405
X111.588Y-44.405
X122.174Y-39.532
X122.174Y-44.532
T9
X92.926Y-129.236
X92.964Y-67.31
X95.466Y-129.236
X95.504Y-67.31
X98.007Y-129.236
X98.044Y-67.31
X129.756Y-129.236
X129.794Y-67.31
X132.296Y-129.236
X132.334Y-67.31
X134.837Y-129.236
X134.874Y-67.31
T10
X31.355Y-72.272
X31.355Y-74.812
X31.355Y-77.352
X31.355Y-79.892
X31.355Y-82.432
X31.355Y-84.972
X31.355Y-87.512
X31.355Y-90.052
X31.355Y-92.592
X31.355Y-95.132
X31.355Y-97.672
X31.355Y-100.212
X31.355Y-102.752
X31.355Y-105.292
X31.355Y-107.832
X31.355Y-110.372
X31.355Y-112.912
X31.355Y-115.452
X31.355Y-117.992
X31.355Y-120.532
X33.895Y-72.272
X33.895Y-74.812
X33.895Y-77.352
X33.895Y-79.892
X33.895Y-82.432
X33.895Y-84.972
X33.895Y-87.512
X33.895Y-90.052
X33.895Y-92.592
X33.895Y-95.132
X33.895Y-97.672
X33.895Y-100.212
X33.895Y-102.752
X33.895Y-105.292
X33.895Y-107.832
X33.895Y-110.372
X33.895Y-112.912
X33.895Y-115.452
X33.895Y-117.992
X33.895Y-120.532
T11
X119.853Y-27.94
X124.853Y-27.94
X137.494Y-38.354
X142.494Y-38.354
T12
X13.914Y-149.451
X15.64Y-2.54
X15.64Y-10.74
X20.64Y-2.54
X20.64Y-10.74
X20.924Y-149.451
X25.64Y-2.54
X25.64Y-10.74
X30.64Y-2.54
X30.64Y-10.74
X35.64Y-2.54
X35.64Y-10.74
X40.64Y-2.54
X40.64Y-10.74
X45.64Y-2.54
X45.64Y-10.74
X50.64Y-2.54
X50.64Y-10.74
X59.055Y-2.54
X59.055Y-10.74
X64.055Y-2.54
X64.055Y-10.74
X69.055Y-2.54
X69.055Y-10.74
X74.055Y-2.54
X74.055Y-10.74
X79.055Y-2.54
X79.055Y-10.74
X84.055Y-2.54
X84.055Y-10.74
X89.055Y-2.54
X89.055Y-10.74
X94.055Y-2.54
X94.055Y-10.74
X105.283Y-2.54
X105.283Y-10.74
X110.283Y-2.54
X110.283Y-10.74
X115.283Y-2.54
X115.283Y-10.74
T13
X95.161Y-78.081
X95.161Y-114.081
X100.161Y-78.081
X100.161Y-114.081
X105.161Y-78.081
X105.161Y-114.081
X110.161Y-78.081
X110.161Y-114.081
X115.161Y-78.081
X115.161Y-114.081
X120.231Y-78.081
X120.231Y-114.081
X125.161Y-78.081
X125.161Y-114.081
X130.161Y-78.081
X130.161Y-114.081
X135.161Y-78.081
X135.161Y-114.081
T14
X114.046Y-50.16
X114.046Y-62.86
T15
X140.208Y-17.987
X140.208Y-28.067
T15
G00X132.12Y-13.555
M15
G01X132.12Y-9.555
M16
G05
G00X137.12Y-13.555
M15
G01X137.12Y-9.555
M16
G05
M30
