%TF.GenerationSoftware,KiCad,Pcbnew,8.0.1-8.0.1-1~ubuntu22.04.1*%
%TF.CreationDate,2024-08-21T15:32:21+07:00*%
%TF.ProjectId,DAW-Pro4,4441572d-5072-46f3-942e-6b696361645f,rev?*%
%TF.SameCoordinates,Original*%
%TF.FileFunction,Soldermask,Top*%
%TF.FilePolarity,Negative*%
%FSLAX46Y46*%
G04 Gerber Fmt 4.6, Leading zero omitted, Abs format (unit mm)*
G04 Created by KiCad (PCBNEW 8.0.1-8.0.1-1~ubuntu22.04.1) date 2024-08-21 15:32:21*
%MOMM*%
%LPD*%
G01*
G04 APERTURE LIST*
G04 Aperture macros list*
%AMRoundRect*
0 Rectangle with rounded corners*
0 $1 Rounding radius*
0 $2 $3 $4 $5 $6 $7 $8 $9 X,Y pos of 4 corners*
0 Add a 4 corners polygon primitive as box body*
4,1,4,$2,$3,$4,$5,$6,$7,$8,$9,$2,$3,0*
0 Add four circle primitives for the rounded corners*
1,1,$1+$1,$2,$3*
1,1,$1+$1,$4,$5*
1,1,$1+$1,$6,$7*
1,1,$1+$1,$8,$9*
0 Add four rect primitives between the rounded corners*
20,1,$1+$1,$2,$3,$4,$5,0*
20,1,$1+$1,$4,$5,$6,$7,0*
20,1,$1+$1,$6,$7,$8,$9,0*
20,1,$1+$1,$8,$9,$2,$3,0*%
%AMFreePoly0*
4,1,9,3.862500,-0.866500,0.737500,-0.866500,0.737500,-0.450000,-0.737500,-0.450000,-0.737500,0.450000,0.737500,0.450000,0.737500,0.866500,3.862500,0.866500,3.862500,-0.866500,3.862500,-0.866500,$1*%
G04 Aperture macros list end*
%ADD10RoundRect,0.200000X0.200000X0.275000X-0.200000X0.275000X-0.200000X-0.275000X0.200000X-0.275000X0*%
%ADD11O,3.800000X8.000000*%
%ADD12RoundRect,0.225000X-0.225000X-0.250000X0.225000X-0.250000X0.225000X0.250000X-0.225000X0.250000X0*%
%ADD13C,3.200000*%
%ADD14RoundRect,0.200000X-0.200000X-0.275000X0.200000X-0.275000X0.200000X0.275000X-0.200000X0.275000X0*%
%ADD15RoundRect,0.225000X-0.250000X0.225000X-0.250000X-0.225000X0.250000X-0.225000X0.250000X0.225000X0*%
%ADD16RoundRect,0.102000X-0.654000X0.654000X-0.654000X-0.654000X0.654000X-0.654000X0.654000X0.654000X0*%
%ADD17C,1.512000*%
%ADD18RoundRect,0.200000X-0.275000X0.200000X-0.275000X-0.200000X0.275000X-0.200000X0.275000X0.200000X0*%
%ADD19RoundRect,0.250000X0.650000X-0.325000X0.650000X0.325000X-0.650000X0.325000X-0.650000X-0.325000X0*%
%ADD20R,2.800000X1.400000*%
%ADD21R,1.600000X1.600000*%
%ADD22O,1.600000X1.600000*%
%ADD23RoundRect,0.250000X-1.000000X1.400000X-1.000000X-1.400000X1.000000X-1.400000X1.000000X1.400000X0*%
%ADD24C,3.600000*%
%ADD25C,2.500000*%
%ADD26C,1.400000*%
%ADD27O,1.400000X1.400000*%
%ADD28RoundRect,0.218750X-0.256250X0.218750X-0.256250X-0.218750X0.256250X-0.218750X0.256250X0.218750X0*%
%ADD29RoundRect,0.200000X0.275000X-0.200000X0.275000X0.200000X-0.275000X0.200000X-0.275000X-0.200000X0*%
%ADD30RoundRect,0.250000X-0.650000X1.000000X-0.650000X-1.000000X0.650000X-1.000000X0.650000X1.000000X0*%
%ADD31RoundRect,0.250000X-1.400000X-1.000000X1.400000X-1.000000X1.400000X1.000000X-1.400000X1.000000X0*%
%ADD32C,1.950000*%
%ADD33R,1.950000X1.950000*%
%ADD34RoundRect,0.250000X1.000000X0.650000X-1.000000X0.650000X-1.000000X-0.650000X1.000000X-0.650000X0*%
%ADD35RoundRect,0.250000X-0.450000X-0.425000X0.450000X-0.425000X0.450000X0.425000X-0.450000X0.425000X0*%
%ADD36R,2.000000X2.000000*%
%ADD37C,2.000000*%
%ADD38RoundRect,0.250000X-1.000000X-0.650000X1.000000X-0.650000X1.000000X0.650000X-1.000000X0.650000X0*%
%ADD39RoundRect,0.250000X0.312500X0.625000X-0.312500X0.625000X-0.312500X-0.625000X0.312500X-0.625000X0*%
%ADD40C,2.800000*%
%ADD41R,1.665000X1.665000*%
%ADD42C,1.665000*%
%ADD43C,4.000000*%
%ADD44RoundRect,0.250000X0.325000X0.650000X-0.325000X0.650000X-0.325000X-0.650000X0.325000X-0.650000X0*%
%ADD45RoundRect,0.250000X-1.500000X-1.000000X1.500000X-1.000000X1.500000X1.000000X-1.500000X1.000000X0*%
%ADD46RoundRect,0.250000X-0.325000X-0.650000X0.325000X-0.650000X0.325000X0.650000X-0.325000X0.650000X0*%
%ADD47RoundRect,0.250000X-0.300000X2.050000X-0.300000X-2.050000X0.300000X-2.050000X0.300000X2.050000X0*%
%ADD48RoundRect,0.250002X-5.149998X4.449998X-5.149998X-4.449998X5.149998X-4.449998X5.149998X4.449998X0*%
%ADD49RoundRect,0.225000X0.225000X0.250000X-0.225000X0.250000X-0.225000X-0.250000X0.225000X-0.250000X0*%
%ADD50R,2.400000X2.400000*%
%ADD51C,2.400000*%
%ADD52RoundRect,0.150000X-0.587500X-0.150000X0.587500X-0.150000X0.587500X0.150000X-0.587500X0.150000X0*%
%ADD53RoundRect,0.150000X-0.825000X-0.150000X0.825000X-0.150000X0.825000X0.150000X-0.825000X0.150000X0*%
%ADD54RoundRect,0.250000X0.300000X-2.050000X0.300000X2.050000X-0.300000X2.050000X-0.300000X-2.050000X0*%
%ADD55RoundRect,0.250002X5.149998X-4.449998X5.149998X4.449998X-5.149998X4.449998X-5.149998X-4.449998X0*%
%ADD56C,2.100000*%
%ADD57C,1.750000*%
%ADD58R,1.500000X1.500000*%
%ADD59O,1.500000X1.500000*%
%ADD60R,1.700000X1.700000*%
%ADD61O,1.700000X1.700000*%
%ADD62RoundRect,0.225000X0.250000X-0.225000X0.250000X0.225000X-0.250000X0.225000X-0.250000X-0.225000X0*%
%ADD63RoundRect,0.250000X-0.650000X0.325000X-0.650000X-0.325000X0.650000X-0.325000X0.650000X0.325000X0*%
%ADD64R,1.300000X0.900000*%
%ADD65FreePoly0,180.000000*%
%ADD66R,1.800000X1.800000*%
%ADD67C,1.800000*%
%ADD68RoundRect,0.250000X1.500000X1.000000X-1.500000X1.000000X-1.500000X-1.000000X1.500000X-1.000000X0*%
%ADD69RoundRect,0.250000X-0.312500X-0.625000X0.312500X-0.625000X0.312500X0.625000X-0.312500X0.625000X0*%
%ADD70O,3.500000X3.500000*%
%ADD71R,1.905000X2.000000*%
%ADD72O,1.905000X2.000000*%
G04 APERTURE END LIST*
D10*
%TO.C,R24*%
X96075000Y-23876000D03*
X94425000Y-23876000D03*
%TD*%
D11*
%TO.C,F1*%
X132120000Y-11555000D03*
X137120000Y-11555000D03*
%TD*%
D12*
%TO.C,C111*%
X111963500Y-68742500D03*
X113513500Y-68742500D03*
%TD*%
D13*
%TO.C,REF\u002A\u002A*%
X86487000Y-131191000D03*
%TD*%
D14*
%TO.C,R34*%
X94933000Y-132842000D03*
X96583000Y-132842000D03*
%TD*%
D12*
%TO.C,C32*%
X47805000Y-16510000D03*
X49355000Y-16510000D03*
%TD*%
D15*
%TO.C,C102*%
X106476800Y-139280600D03*
X106476800Y-140830600D03*
%TD*%
D16*
%TO.C,J12*%
X30594300Y-135819000D03*
D17*
X35445700Y-135819000D03*
X30594300Y-138359000D03*
X35445700Y-138359000D03*
X30594300Y-140899000D03*
X35445700Y-140899000D03*
X30594300Y-143439000D03*
X35445700Y-143439000D03*
X30594300Y-145979000D03*
X35445700Y-145979000D03*
X30594300Y-148519000D03*
X35445700Y-148519000D03*
%TD*%
D18*
%TO.C,R49*%
X108839000Y-132652000D03*
X108839000Y-134302000D03*
%TD*%
D19*
%TO.C,C20*%
X33020000Y-28096000D03*
X33020000Y-25146000D03*
%TD*%
D13*
%TO.C,REF\u002A\u002A*%
X144780000Y-5080000D03*
%TD*%
D20*
%TO.C,L10*%
X90170000Y-25060000D03*
X90170000Y-20660000D03*
%TD*%
D21*
%TO.C,U16*%
X107424000Y-33899000D03*
D22*
X109964000Y-33899000D03*
X109964000Y-26279000D03*
X107424000Y-26279000D03*
%TD*%
D23*
%TO.C,VD1*%
X134210000Y-19558000D03*
X127410000Y-19558000D03*
%TD*%
D13*
%TO.C,REF\u002A\u002A*%
X17780000Y-43180000D03*
%TD*%
D24*
%TO.C,L19*%
X114046000Y-62860000D03*
X114046000Y-50160000D03*
%TD*%
D25*
%TO.C,TR1*%
X95161500Y-114081500D03*
X100161500Y-114081500D03*
X105161500Y-114081500D03*
X110161500Y-114081500D03*
X120231500Y-114081500D03*
X125161500Y-114081500D03*
X130161500Y-114081500D03*
X135161500Y-114081500D03*
X130161500Y-78081500D03*
X135161500Y-78081500D03*
X120231500Y-78081500D03*
X125161500Y-78081500D03*
X105161500Y-78081500D03*
X110161500Y-78081500D03*
X95161500Y-78081500D03*
X100161500Y-78081500D03*
X115161500Y-78081500D03*
X115161500Y-114081500D03*
%TD*%
D26*
%TO.C,R40*%
X136551200Y-46228000D03*
D27*
X131471200Y-46228000D03*
%TD*%
D12*
%TO.C,C91*%
X60251000Y-16510000D03*
X61801000Y-16510000D03*
%TD*%
D10*
%TO.C,R19*%
X96075000Y-22225000D03*
X94425000Y-22225000D03*
%TD*%
D13*
%TO.C,REF\u002A\u002A*%
X54610000Y-43180000D03*
%TD*%
%TO.C,REF\u002A\u002A*%
X5080000Y-5080000D03*
%TD*%
D15*
%TO.C,C57*%
X73558400Y-50533000D03*
X73558400Y-52083000D03*
%TD*%
D28*
%TO.C,HL1*%
X23876000Y-54051000D03*
X23876000Y-55626000D03*
%TD*%
D20*
%TO.C,L15*%
X62738000Y-25060000D03*
X62738000Y-20660000D03*
%TD*%
%TO.C,L4*%
X40132000Y-25060000D03*
X40132000Y-20660000D03*
%TD*%
D29*
%TO.C,R26*%
X106426000Y-137477000D03*
X106426000Y-135827000D03*
%TD*%
D30*
%TO.C,VD15*%
X102467000Y-18415000D03*
X102467000Y-22415000D03*
%TD*%
D31*
%TO.C,VD12*%
X86106000Y-77372000D03*
X86106000Y-84172000D03*
%TD*%
D28*
%TO.C,HL4*%
X66929000Y-54203500D03*
X66929000Y-55778500D03*
%TD*%
D32*
%TO.C,J6*%
X50640000Y-10740000D03*
D33*
X50640000Y-2540000D03*
D32*
X45640000Y-10740000D03*
X45640000Y-2540000D03*
X40640000Y-10740000D03*
X40640000Y-2540000D03*
X35640000Y-10740000D03*
X35640000Y-2540000D03*
X30640000Y-10740000D03*
X30640000Y-2540000D03*
X25640000Y-10740000D03*
X25640000Y-2540000D03*
X20640000Y-10740000D03*
X20640000Y-2540000D03*
X15640000Y-10740000D03*
X15640000Y-2540000D03*
%TD*%
D34*
%TO.C,VD7*%
X121772500Y-126083500D03*
X117772500Y-126083500D03*
%TD*%
D35*
%TO.C,C8*%
X70532000Y-75311000D03*
X73232000Y-75311000D03*
%TD*%
D36*
%TO.C,C115*%
X122174000Y-44531677D03*
D37*
X122174000Y-39531677D03*
%TD*%
D10*
%TO.C,R31*%
X120733000Y-135227500D03*
X119083000Y-135227500D03*
%TD*%
D12*
%TO.C,C94*%
X91046000Y-18288000D03*
X92596000Y-18288000D03*
%TD*%
D38*
%TO.C,VD6*%
X105612500Y-126083500D03*
X109612500Y-126083500D03*
%TD*%
D39*
%TO.C,R41*%
X103189500Y-36703000D03*
X100264500Y-36703000D03*
%TD*%
D38*
%TO.C,VD4*%
X120344500Y-129639500D03*
X124344500Y-129639500D03*
%TD*%
D14*
%TO.C,R25*%
X114407500Y-144117500D03*
X116057500Y-144117500D03*
%TD*%
D40*
%TO.C,IC1*%
X32315000Y-125402000D03*
X55315000Y-125402000D03*
X32315000Y-67402000D03*
X55315000Y-67402000D03*
D41*
X33895000Y-120532000D03*
D42*
X31355000Y-120532000D03*
X33895000Y-117992000D03*
X31355000Y-117992000D03*
X33895000Y-115452000D03*
X31355000Y-115452000D03*
X33895000Y-112912000D03*
X31355000Y-112912000D03*
X33895000Y-110372000D03*
X31355000Y-110372000D03*
X33895000Y-107832000D03*
X31355000Y-107832000D03*
X33895000Y-105292000D03*
X31355000Y-105292000D03*
X33895000Y-102752000D03*
X31355000Y-102752000D03*
X33895000Y-100212000D03*
X31355000Y-100212000D03*
X33895000Y-97672000D03*
X31355000Y-97672000D03*
X33895000Y-95132000D03*
X31355000Y-95132000D03*
X33895000Y-92592000D03*
X31355000Y-92592000D03*
X33895000Y-90052000D03*
X31355000Y-90052000D03*
X33895000Y-87512000D03*
X31355000Y-87512000D03*
X33895000Y-84972000D03*
X31355000Y-84972000D03*
X33895000Y-82432000D03*
X31355000Y-82432000D03*
X33895000Y-79892000D03*
X31355000Y-79892000D03*
X33895000Y-77352000D03*
X31355000Y-77352000D03*
X33895000Y-74812000D03*
X31355000Y-74812000D03*
X33895000Y-72272000D03*
X31355000Y-72272000D03*
%TD*%
D12*
%TO.C,C45*%
X17246000Y-18288000D03*
X18796000Y-18288000D03*
%TD*%
D10*
%TO.C,R48*%
X87693000Y-100711000D03*
X86043000Y-100711000D03*
%TD*%
D20*
%TO.C,L2*%
X46736000Y-25060000D03*
X46736000Y-20660000D03*
%TD*%
D43*
%TO.C,L18*%
X140208000Y-17987000D03*
X140208000Y-28067000D03*
%TD*%
D21*
%TO.C,U15*%
X101595000Y-33899000D03*
D22*
X104135000Y-33899000D03*
X104135000Y-26279000D03*
X101595000Y-26279000D03*
%TD*%
D44*
%TO.C,C17*%
X47322000Y-40259000D03*
X44372000Y-40259000D03*
%TD*%
D13*
%TO.C,REF\u002A\u002A*%
X91440000Y-43180000D03*
%TD*%
D18*
%TO.C,R20*%
X68580000Y-50483000D03*
X68580000Y-52133000D03*
%TD*%
D45*
%TO.C,C60*%
X66803200Y-90728800D03*
X73303200Y-90728800D03*
%TD*%
D14*
%TO.C,R45*%
X105538000Y-37084000D03*
X107188000Y-37084000D03*
%TD*%
D31*
%TO.C,VD13*%
X86106000Y-87405000D03*
X86106000Y-94205000D03*
%TD*%
D12*
%TO.C,C40*%
X47726000Y-18288000D03*
X49276000Y-18288000D03*
%TD*%
D13*
%TO.C,REF\u002A\u002A*%
X138303000Y-65786000D03*
%TD*%
D29*
%TO.C,R3*%
X23876000Y-52197000D03*
X23876000Y-50547000D03*
%TD*%
D44*
%TO.C,C47*%
X47398200Y-44907200D03*
X44448200Y-44907200D03*
%TD*%
D18*
%TO.C,R2*%
X25400000Y-50547000D03*
X25400000Y-52197000D03*
%TD*%
D46*
%TO.C,C64*%
X82141800Y-45515000D03*
X85091800Y-45515000D03*
%TD*%
D28*
%TO.C,HL3*%
X68707000Y-54203500D03*
X68707000Y-55778500D03*
%TD*%
D47*
%TO.C,U7*%
X72593200Y-98318800D03*
D48*
X70053200Y-107468800D03*
D47*
X67513200Y-98318800D03*
%TD*%
D49*
%TO.C,C88*%
X82375000Y-16510000D03*
X80825000Y-16510000D03*
%TD*%
D20*
%TO.C,L5*%
X26162000Y-25060000D03*
X26162000Y-20660000D03*
%TD*%
D49*
%TO.C,C43*%
X28588000Y-18288000D03*
X27038000Y-18288000D03*
%TD*%
D12*
%TO.C,C59*%
X118097000Y-139827000D03*
X119647000Y-139827000D03*
%TD*%
D15*
%TO.C,C2*%
X38481000Y-38849000D03*
X38481000Y-40399000D03*
%TD*%
D32*
%TO.C,J18*%
X94055000Y-10740000D03*
D33*
X94055000Y-2540000D03*
D32*
X89055000Y-10740000D03*
X89055000Y-2540000D03*
X84055000Y-10740000D03*
X84055000Y-2540000D03*
X79055000Y-10740000D03*
X79055000Y-2540000D03*
X74055000Y-10740000D03*
X74055000Y-2540000D03*
X69055000Y-10740000D03*
X69055000Y-2540000D03*
X64055000Y-10740000D03*
X64055000Y-2540000D03*
X59055000Y-10740000D03*
X59055000Y-2540000D03*
%TD*%
D50*
%TO.C,C107*%
X124852729Y-27940000D03*
D51*
X119852729Y-27940000D03*
%TD*%
D26*
%TO.C,R36*%
X102185000Y-123037600D03*
D27*
X97105000Y-123037600D03*
%TD*%
D31*
%TO.C,VD11*%
X79248000Y-87376000D03*
X79248000Y-94176000D03*
%TD*%
D52*
%TO.C,VT1*%
X106294000Y-143040500D03*
X106294000Y-144940500D03*
X108169000Y-143990500D03*
%TD*%
D26*
%TO.C,R37*%
X134239000Y-123063000D03*
D27*
X129159000Y-123063000D03*
%TD*%
D32*
%TO.C,J22*%
X115283000Y-10740000D03*
D33*
X115283000Y-2540000D03*
D32*
X110283000Y-10740000D03*
X110283000Y-2540000D03*
X105283000Y-10740000D03*
X105283000Y-2540000D03*
%TD*%
D15*
%TO.C,C54*%
X35915600Y-122618200D03*
X35915600Y-124168200D03*
%TD*%
D30*
%TO.C,VD2*%
X35433000Y-37370000D03*
X35433000Y-41370000D03*
%TD*%
D49*
%TO.C,C34*%
X39317000Y-16510000D03*
X37767000Y-16510000D03*
%TD*%
D36*
%TO.C,C114*%
X111587677Y-44404677D03*
D37*
X111587677Y-39404677D03*
%TD*%
D53*
%TO.C,U13*%
X111106500Y-132560500D03*
X111106500Y-133830500D03*
X111106500Y-135100500D03*
X111106500Y-136370500D03*
X111106500Y-137640500D03*
X111106500Y-138910500D03*
X111106500Y-140180500D03*
X111106500Y-141450500D03*
X116056500Y-141450500D03*
X116056500Y-140180500D03*
X116056500Y-138910500D03*
X116056500Y-137640500D03*
X116056500Y-136370500D03*
X116056500Y-135100500D03*
X116056500Y-133830500D03*
X116056500Y-132560500D03*
%TD*%
D54*
%TO.C,U2*%
X67005200Y-70896000D03*
D55*
X69545200Y-61746000D03*
D54*
X72085200Y-70896000D03*
%TD*%
D20*
%TO.C,L12*%
X83566000Y-25060000D03*
X83566000Y-20660000D03*
%TD*%
%TO.C,L13*%
X69342000Y-25060000D03*
X69342000Y-20660000D03*
%TD*%
D12*
%TO.C,C37*%
X17071000Y-16510000D03*
X18621000Y-16510000D03*
%TD*%
D56*
%TO.C,SW1*%
X20924000Y-149451500D03*
X13914000Y-149451500D03*
D57*
X19674000Y-151941500D03*
X15174000Y-151941500D03*
%TD*%
D58*
%TO.C,D1*%
X80132000Y-98552000D03*
D59*
X87752000Y-98552000D03*
%TD*%
D10*
%TO.C,R33*%
X124209000Y-132560500D03*
X122559000Y-132560500D03*
%TD*%
D29*
%TO.C,R1*%
X75311000Y-147320000D03*
X75311000Y-145670000D03*
%TD*%
D58*
%TO.C,J10*%
X84582000Y-71882000D03*
%TD*%
D49*
%TO.C,C96*%
X82563000Y-18288000D03*
X81013000Y-18288000D03*
%TD*%
D31*
%TO.C,VD10*%
X79248000Y-77372000D03*
X79248000Y-84172000D03*
%TD*%
D35*
%TO.C,C61*%
X67454800Y-114300000D03*
X70154800Y-114300000D03*
%TD*%
D14*
%TO.C,R43*%
X107379000Y-23495000D03*
X109029000Y-23495000D03*
%TD*%
D29*
%TO.C,R50*%
X118110000Y-142938000D03*
X118110000Y-141288000D03*
%TD*%
D21*
%TO.C,U11*%
X87127000Y-103896000D03*
D22*
X84587000Y-103896000D03*
X84587000Y-111516000D03*
X87127000Y-111516000D03*
%TD*%
D46*
%TO.C,C21*%
X18096000Y-36195000D03*
X21046000Y-36195000D03*
%TD*%
D10*
%TO.C,R32*%
X120713000Y-137287000D03*
X119063000Y-137287000D03*
%TD*%
D12*
%TO.C,C86*%
X91239000Y-16510000D03*
X92789000Y-16510000D03*
%TD*%
D60*
%TO.C,J1*%
X24257000Y-115301000D03*
D61*
X24257000Y-112761000D03*
X24257000Y-110221000D03*
%TD*%
D62*
%TO.C,C49*%
X39065200Y-148501400D03*
X39065200Y-146951400D03*
%TD*%
D21*
%TO.C,U5*%
X95626000Y-33899000D03*
D22*
X98166000Y-33899000D03*
X98166000Y-26279000D03*
X95626000Y-26279000D03*
%TD*%
D63*
%TO.C,C75*%
X76200000Y-25143000D03*
X76200000Y-28093000D03*
%TD*%
D20*
%TO.C,L7*%
X19558000Y-25060000D03*
X19558000Y-20660000D03*
%TD*%
D12*
%TO.C,C109*%
X104254000Y-123012200D03*
X105804000Y-123012200D03*
%TD*%
D49*
%TO.C,C56*%
X63106600Y-61976000D03*
X61556600Y-61976000D03*
%TD*%
D13*
%TO.C,REF\u002A\u002A*%
X144780000Y-152654000D03*
%TD*%
D64*
%TO.C,U1*%
X31922000Y-41886000D03*
D65*
X31834500Y-40386000D03*
D64*
X31922000Y-38886000D03*
%TD*%
D44*
%TO.C,C71*%
X90756000Y-36068000D03*
X87806000Y-36068000D03*
%TD*%
D29*
%TO.C,R21*%
X67056000Y-52133000D03*
X67056000Y-50483000D03*
%TD*%
D58*
%TO.C,J16*%
X74625200Y-122961400D03*
%TD*%
D16*
%TO.C,J20*%
X49517300Y-135819000D03*
D17*
X54368700Y-135819000D03*
X49517300Y-138359000D03*
X54368700Y-138359000D03*
X49517300Y-140899000D03*
X54368700Y-140899000D03*
X49517300Y-143439000D03*
X54368700Y-143439000D03*
X49517300Y-145979000D03*
X54368700Y-145979000D03*
X49517300Y-148519000D03*
X54368700Y-148519000D03*
%TD*%
D63*
%TO.C,C104*%
X122428000Y-144526000D03*
X122428000Y-147476000D03*
%TD*%
D49*
%TO.C,C103*%
X111943500Y-143609500D03*
X110393500Y-143609500D03*
%TD*%
D58*
%TO.C,J14*%
X84836000Y-42926000D03*
%TD*%
D12*
%TO.C,C99*%
X60426000Y-18288000D03*
X61976000Y-18288000D03*
%TD*%
D66*
%TO.C,HL5*%
X72664000Y-149565000D03*
D67*
X75204000Y-149565000D03*
%TD*%
D49*
%TO.C,C97*%
X72136000Y-18288000D03*
X70586000Y-18288000D03*
%TD*%
%TO.C,C35*%
X28715000Y-16510000D03*
X27165000Y-16510000D03*
%TD*%
D58*
%TO.C,J11*%
X74625200Y-118008400D03*
%TD*%
D12*
%TO.C,C110*%
X125397000Y-123063000D03*
X126947000Y-123063000D03*
%TD*%
D14*
%TO.C,R27*%
X106406500Y-147165500D03*
X108056500Y-147165500D03*
%TD*%
D28*
%TO.C,HL2*%
X25527000Y-54076500D03*
X25527000Y-55651500D03*
%TD*%
D63*
%TO.C,C105*%
X119253000Y-144526000D03*
X119253000Y-147476000D03*
%TD*%
D15*
%TO.C,C55*%
X29768800Y-50583800D03*
X29768800Y-52133800D03*
%TD*%
D36*
%TO.C,C113*%
X84836000Y-65359677D03*
D37*
X84836000Y-60359677D03*
%TD*%
D49*
%TO.C,C42*%
X39370000Y-18288000D03*
X37820000Y-18288000D03*
%TD*%
D46*
%TO.C,C16*%
X95553000Y-39116000D03*
X98503000Y-39116000D03*
%TD*%
D49*
%TO.C,C106*%
X115245500Y-147165500D03*
X113695500Y-147165500D03*
%TD*%
D62*
%TO.C,C4*%
X26670000Y-41656000D03*
X26670000Y-40106000D03*
%TD*%
D18*
%TO.C,R6*%
X25400000Y-94425000D03*
X25400000Y-96075000D03*
%TD*%
D34*
%TO.C,VD3*%
X106564500Y-129639500D03*
X102564500Y-129639500D03*
%TD*%
D26*
%TO.C,R38*%
X107138000Y-67310000D03*
D27*
X102058000Y-67310000D03*
%TD*%
D10*
%TO.C,R28*%
X111866500Y-147165500D03*
X110216500Y-147165500D03*
%TD*%
D30*
%TO.C,VD5*%
X113708500Y-125607500D03*
X113708500Y-129607500D03*
%TD*%
D68*
%TO.C,C7*%
X72846000Y-81280000D03*
X66346000Y-81280000D03*
%TD*%
D50*
%TO.C,C108*%
X142494000Y-38354000D03*
D51*
X137494000Y-38354000D03*
%TD*%
D44*
%TO.C,C125*%
X103202000Y-39116000D03*
X100252000Y-39116000D03*
%TD*%
D14*
%TO.C,R30*%
X105136500Y-132560500D03*
X106786500Y-132560500D03*
%TD*%
D13*
%TO.C,REF\u002A\u002A*%
X5080000Y-152654000D03*
%TD*%
D19*
%TO.C,C74*%
X63957200Y-35206200D03*
X63957200Y-32256200D03*
%TD*%
D49*
%TO.C,C89*%
X71961000Y-16510000D03*
X70411000Y-16510000D03*
%TD*%
D30*
%TO.C,VD14*%
X98806000Y-18447000D03*
X98806000Y-22447000D03*
%TD*%
D14*
%TO.C,R35*%
X131255000Y-133223000D03*
X132905000Y-133223000D03*
%TD*%
D69*
%TO.C,R42*%
X95565500Y-36703000D03*
X98490500Y-36703000D03*
%TD*%
D14*
%TO.C,R29*%
X120206000Y-142240000D03*
X121856000Y-142240000D03*
%TD*%
D70*
%TO.C,VT2*%
X95466500Y-145895500D03*
D71*
X98006500Y-129235500D03*
D72*
X95466500Y-129235500D03*
X92926500Y-129235500D03*
%TD*%
D70*
%TO.C,VT3*%
X132296500Y-145895500D03*
D71*
X134836500Y-129235500D03*
D72*
X132296500Y-129235500D03*
X129756500Y-129235500D03*
%TD*%
D70*
%TO.C,VD9*%
X132334000Y-50650000D03*
D71*
X129794000Y-67310000D03*
D72*
X132334000Y-67310000D03*
X134874000Y-67310000D03*
%TD*%
D70*
%TO.C,VD8*%
X95504000Y-50650000D03*
D71*
X92964000Y-67310000D03*
D72*
X95504000Y-67310000D03*
X98044000Y-67310000D03*
%TD*%
G36*
X133420004Y-57169704D02*
G01*
X133465777Y-57222492D01*
X133477000Y-57274042D01*
X133477000Y-68456000D01*
X133457315Y-68523039D01*
X133404511Y-68568794D01*
X133353000Y-68580000D01*
X131061000Y-68580000D01*
X130993961Y-68560315D01*
X130948206Y-68507511D01*
X130937000Y-68456000D01*
X130937000Y-66076812D01*
X96647000Y-65745506D01*
X96647000Y-68456000D01*
X96627315Y-68523039D01*
X96574511Y-68568794D01*
X96523000Y-68580000D01*
X94358145Y-68580000D01*
X94291106Y-68560315D01*
X94245351Y-68507511D01*
X94234145Y-68455855D01*
X94247212Y-57287169D01*
X94266975Y-57220153D01*
X94319833Y-57174459D01*
X94371170Y-57163314D01*
X133352958Y-57150042D01*
X133420004Y-57169704D01*
G37*
G36*
X148025039Y-24403685D02*
G01*
X148070794Y-24456489D01*
X148082000Y-24508000D01*
X148082000Y-105358638D01*
X148062315Y-105425677D01*
X148045681Y-105446319D01*
X142403319Y-111088681D01*
X142341996Y-111122166D01*
X142315638Y-111125000D01*
X127127000Y-111125000D01*
X127127000Y-115954000D01*
X127107315Y-116021039D01*
X127054511Y-116066794D01*
X127003000Y-116078000D01*
X116764362Y-116078000D01*
X116697323Y-116058315D01*
X116676681Y-116041681D01*
X116622319Y-115987319D01*
X116588834Y-115925996D01*
X116586000Y-115899638D01*
X116586000Y-102105000D01*
X116605685Y-102037961D01*
X116658489Y-101992206D01*
X116710000Y-101981000D01*
X137922000Y-101981000D01*
X137922000Y-101980999D01*
X140462000Y-99440999D01*
X140462000Y-40513000D01*
X123060000Y-40513000D01*
X122992961Y-40493315D01*
X122947206Y-40440511D01*
X122936000Y-40389000D01*
X122936000Y-24508000D01*
X122955685Y-24440961D01*
X123008489Y-24395206D01*
X123060000Y-24384000D01*
X147958000Y-24384000D01*
X148025039Y-24403685D01*
G37*
M02*
