<?xml version='1.0' encoding='UTF-8' standalone='no'?>
<svg xmlns:dc="http://purl.org/dc/elements/1.1/" width="297mm" xmlns:cc="http://creativecommons.org/ns#" viewBox="0 0 2970 2100" baseProfile="tiny" xmlns="http://www.w3.org/2000/svg" xmlns:xlink="http://www.w3.org/1999/xlink" xmlns:freecad="http://www.freecad.org/wiki/index.php?title=Svg_Namespace" xmlns:svg="http://www.w3.org/2000/svg" xmlns:inkscape="http://www.inkscape.org/namespaces/inkscape" height="210mm" version="1.2" xmlns:sodipodi="http://sodipodi.sourceforge.net/DTD/sodipodi-0.dtd" xmlns:rdf="http://www.w3.org/1999/02/22-rdf-syntax-ns#">
 <title>FreeCAD SVG Export</title>
 <desc>Drawing page: Page exported from FreeCAD document: enclosure</desc>
 <defs/>
 <g inkscape:label="TechDraw" id="Page" inkscape:groupmode="layer">
  <g style="stroke: none;" transform="scale(10.000000, 10.000000)" id="A4_Landscape_blank.svg">
   <metadata id="metadata8">
    <rdf:RDF>
     <cc:Work rdf:about="">
      <dc:format>image/svg+xml</dc:format>
      <dc:type rdf:resource="http://purl.org/dc/dcmitype/StillImage"/>
     </cc:Work>
    </rdf:RDF>
   </metadata>
   <defs id="defs6"/>
  </g>
  <g fill="none" stroke-width="1" stroke="black" stroke-linejoin="bevel" stroke-linecap="square" fill-rule="evenodd" id="DrawingContent">
   <g fill="#ffffff" fill-opacity="1" stroke="none" transform="matrix(1,0,0,1,1485,1050)" font-weight="400" font-family="Sans Serif" font-style="normal" font-size="31.75">
    <path vector-effect="non-scaling-stroke" d="M800,-270 L800,270 L-800,270 L-800,-270 L800,-270" fill-rule="evenodd"/>
   </g>
   <g fill="#ffffff" fill-opacity="1" stroke="none" transform="matrix(1,0,0,1,1485,1050)" font-weight="400" font-family="Sans Serif" font-style="normal" font-size="31.75">
    <path vector-effect="non-scaling-stroke" d="M-530,-80 L-530,-10 L-670,-10 L-670,-80 L-530,-80" fill-rule="evenodd"/>
   </g>
   <g fill="#ffffff" fill-opacity="1" stroke="none" transform="matrix(1,0,0,1,1485,1050)" font-weight="400" font-family="Sans Serif" font-style="normal" font-size="31.75">
    <path vector-effect="non-scaling-stroke" d="M-550.992,24.1562 L-550.992,44.1562 C-550.992,48.8383 -554.788,52.6339 -559.47,52.6339 L-641.244,52.6339 C-645.926,52.6339 -649.722,48.8383 -649.722,44.1562 L-649.722,24.1562 C-649.722,19.474 -645.926,15.6784 -641.244,15.6784 L-559.47,15.6784 C-554.788,15.6784 -550.992,19.474 -550.992,24.1562 " fill-rule="evenodd"/>
   </g>
   <g fill="#ffffff" fill-opacity="1" stroke="none" transform="matrix(1,0,0,1,1485,1050)" font-weight="400" font-family="Sans Serif" font-style="normal" font-size="31.75">
    <path vector-effect="non-scaling-stroke" d="M-231,-11 C-231,5.56854 -244.431,19 -261,19 C-277.569,19 -291,5.56854 -291,-11 C-291,-27.5685 -277.569,-41 -261,-41 C-244.431,-41 -231,-27.5685 -231,-11 " fill-rule="evenodd"/>
   </g>
   <g fill="#ffffff" fill-opacity="1" stroke="none" transform="matrix(1,0,0,1,1485,1050)" font-weight="400" font-family="Sans Serif" font-style="normal" font-size="31.75">
    <path vector-effect="non-scaling-stroke" d="M5,88 C5,86.9924 4.89847,85.9873 4.69694,85 C4.33478,83.2258 3.65435,81.5318 2.68858,80 C-0.0585451,75.6429 -4.84915,73 -10,73 C-15.1509,73 -19.9415,75.6429 -22.6886,80 C-23.6543,81.5318 -24.3348,83.2258 -24.6969,85 C-25.841,90.6048 -23.6977,96.3723 -19.1711,99.8697 C-14.6445,103.367 -8.52277,103.986 -3.38814,101.464 C1.74649,98.9427 5,93.7203 5,88 " fill-rule="evenodd"/>
   </g>
   <g fill="#ffffff" fill-opacity="1" stroke="none" transform="matrix(1,0,0,1,1485,1050)" font-weight="400" font-family="Sans Serif" font-style="normal" font-size="31.75">
    <path vector-effect="non-scaling-stroke" d="M715,135 C715,143.284 708.284,150 700,150 C691.716,150 685,143.284 685,135 C685,126.716 691.716,120 700,120 C708.284,120 715,126.716 715,135 " fill-rule="evenodd"/>
   </g>
   <g fill="#ffffff" fill-opacity="1" stroke="none" transform="matrix(1,0,0,1,1485,1050)" font-weight="400" font-family="Sans Serif" font-style="normal" font-size="31.75">
    <path vector-effect="non-scaling-stroke" d="M-485,-45 C-485,-36.7157 -491.716,-30 -500,-30 C-508.284,-30 -515,-36.7157 -515,-45 C-515,-53.2843 -508.284,-60 -500,-60 C-491.716,-60 -485,-53.2843 -485,-45 " fill-rule="evenodd"/>
   </g>
   <g fill="#ffffff" fill-opacity="1" stroke="none" transform="matrix(1,0,0,1,1485,1050)" font-weight="400" font-family="Sans Serif" font-style="normal" font-size="31.75">
    <path vector-effect="non-scaling-stroke" d="M-560,154 C-560,162.284 -566.716,169 -575,169 C-583.284,169 -590,162.284 -590,154 C-590,145.716 -583.284,139 -575,139 C-566.716,139 -560,145.716 -560,154 " fill-rule="evenodd"/>
   </g>
   <g fill="#ffffff" fill-opacity="1" stroke="none" transform="matrix(1,0,0,1,1485,1050)" font-weight="400" font-family="Sans Serif" font-style="normal" font-size="31.75">
    <path vector-effect="non-scaling-stroke" d="M-685,135 C-685,143.284 -691.716,150 -700,150 C-708.284,150 -715,143.284 -715,135 C-715,126.716 -708.284,120 -700,120 C-691.716,120 -685,126.716 -685,135 " fill-rule="evenodd"/>
   </g>
   <g fill="#ffffff" fill-opacity="1" stroke="none" transform="matrix(1,0,0,1,1485,1050)" font-weight="400" font-family="Sans Serif" font-style="normal" font-size="31.75">
    <path vector-effect="non-scaling-stroke" d="M-685,-45 C-685,-36.7157 -691.716,-30 -700,-30 C-708.284,-30 -715,-36.7157 -715,-45 C-715,-53.2843 -708.284,-60 -700,-60 C-691.716,-60 -685,-53.2843 -685,-45 " fill-rule="evenodd"/>
   </g>
   <g fill="#ffffff" fill-opacity="1" stroke="none" transform="matrix(1,0,0,1,1485,1050)" font-weight="400" font-family="Sans Serif" font-style="normal" font-size="31.75">
    <path vector-effect="non-scaling-stroke" d="M-685,-165 C-685,-156.716 -691.716,-150 -700,-150 C-708.284,-150 -715,-156.716 -715,-165 C-715,-173.284 -708.284,-180 -700,-180 C-691.716,-180 -685,-173.284 -685,-165 " fill-rule="evenodd"/>
   </g>
   <g fill="#ffffff" fill-opacity="1" stroke="none" transform="matrix(1,0,0,1,1485,1050)" font-weight="400" font-family="Sans Serif" font-style="normal" font-size="31.75">
    <path vector-effect="non-scaling-stroke" d="M715,-165 C715,-156.716 708.284,-150 700,-150 C691.716,-150 685,-156.716 685,-165 C685,-173.284 691.716,-180 700,-180 C708.284,-180 715,-173.284 715,-165 " fill-rule="evenodd"/>
   </g>
   <g fill="#ffffff" fill-opacity="1" stroke="none" transform="matrix(1,0,0,1,1485,1050)" font-weight="400" font-family="Sans Serif" font-style="normal" font-size="31.75">
    <path vector-effect="non-scaling-stroke" d="M712.5,135 C712.5,141.904 706.904,147.5 700,147.5 C693.096,147.5 687.5,141.904 687.5,135 C687.5,128.096 693.096,122.5 700,122.5 C706.904,122.5 712.5,128.096 712.5,135 " fill-rule="evenodd"/>
   </g>
   <g fill="#ffffff" fill-opacity="1" stroke="none" transform="matrix(1,0,0,1,1485,1050)" font-weight="400" font-family="Sans Serif" font-style="normal" font-size="31.75">
    <path vector-effect="non-scaling-stroke" d="M-687.5,135 C-687.5,141.904 -693.096,147.5 -700,147.5 C-706.904,147.5 -712.5,141.904 -712.5,135 C-712.5,128.096 -706.904,122.5 -700,122.5 C-693.096,122.5 -687.5,128.096 -687.5,135 " fill-rule="evenodd"/>
   </g>
   <g fill="#ffffff" fill-opacity="1" stroke="none" transform="matrix(1,0,0,1,1485,1050)" font-weight="400" font-family="Sans Serif" font-style="normal" font-size="31.75">
    <path vector-effect="non-scaling-stroke" d="M-508.5,35 C-508.5,41.9036 -514.096,47.5 -521,47.5 C-527.904,47.5 -533.5,41.9036 -533.5,35 C-533.5,28.0964 -527.904,22.5 -521,22.5 C-514.096,22.5 -508.5,28.0964 -508.5,35 " fill-rule="evenodd"/>
   </g>
   <g fill="#ffffff" fill-opacity="1" stroke="none" transform="matrix(1,0,0,1,1485,1050)" font-weight="400" font-family="Sans Serif" font-style="normal" font-size="31.75">
    <path vector-effect="non-scaling-stroke" d="M-666.5,35 C-666.5,41.9036 -672.096,47.5 -679,47.5 C-685.904,47.5 -691.5,41.9036 -691.5,35 C-691.5,28.0964 -685.904,22.5 -679,22.5 C-672.096,22.5 -666.5,28.0964 -666.5,35 " fill-rule="evenodd"/>
   </g>
   <g fill="#ffffff" fill-opacity="1" stroke="none" transform="matrix(1,0,0,1,1485,1050)" font-weight="400" font-family="Sans Serif" font-style="normal" font-size="31.75">
    <path vector-effect="non-scaling-stroke" d="M5,88 C5,86.9924 4.89847,85.9873 4.69694,85 L-24.6969,85 C-25.841,90.6048 -23.6977,96.3723 -19.1711,99.8697 C-14.6445,103.367 -8.52277,103.986 -3.38814,101.464 C1.74649,98.9427 5,93.7203 5,88 " fill-rule="evenodd"/>
   </g>
   <g fill="#ffffff" fill-opacity="1" stroke="none" transform="matrix(1,0,0,1,1485,1050)" font-weight="400" font-family="Sans Serif" font-style="normal" font-size="31.75">
    <path vector-effect="non-scaling-stroke" d="M4.69694,85 C4.33478,83.2258 3.65435,81.5318 2.68858,80 L-22.6886,80 C-23.6543,81.5318 -24.3348,83.2258 -24.6969,85 L4.69694,85" fill-rule="evenodd"/>
   </g>
   <g fill="#ffffff" fill-opacity="1" stroke="none" transform="matrix(1,0,0,1,1485,1050)" font-weight="400" font-family="Sans Serif" font-style="normal" font-size="31.75">
    <path vector-effect="non-scaling-stroke" d="M2.68858,80 C-0.0585451,75.6429 -4.84915,73 -10,73 C-15.1509,73 -19.9415,75.6429 -22.6886,80 L2.68858,80" fill-rule="evenodd"/>
   </g>
   <g fill="none" stroke-width="7" stroke="#000000" stroke-linejoin="bevel" stroke-opacity="1" transform="matrix(1,0,0,1,1485,1050)" stroke-linecap="round" font-weight="400" font-family="Sans Serif" font-style="normal" font-size="31.75">
    <path vector-effect="none" d="M-800,-270 L800,-270" fill-rule="evenodd"/>
   </g>
   <g fill="none" stroke-width="7" stroke="#000000" stroke-linejoin="bevel" stroke-opacity="1" transform="matrix(1,0,0,1,1485,1050)" stroke-linecap="round" font-weight="400" font-family="Sans Serif" font-style="normal" font-size="31.75">
    <path vector-effect="none" d="M-800,270 L-800,-270" fill-rule="evenodd"/>
   </g>
   <g fill="none" stroke-width="7" stroke="#000000" stroke-linejoin="bevel" stroke-opacity="1" transform="matrix(1,0,0,1,1485,1050)" stroke-linecap="round" font-weight="400" font-family="Sans Serif" font-style="normal" font-size="31.75">
    <path vector-effect="none" d="M800,-270 L800,270" fill-rule="evenodd"/>
   </g>
   <g fill="none" stroke-width="7" stroke="#000000" stroke-linejoin="bevel" stroke-opacity="1" transform="matrix(1,0,0,1,1485,1050)" stroke-linecap="round" font-weight="400" font-family="Sans Serif" font-style="normal" font-size="31.75">
    <path vector-effect="none" d="M800,270 L-800,270" fill-rule="evenodd"/>
   </g>
   <g fill="none" stroke-width="7" stroke="#000000" stroke-linejoin="bevel" stroke-opacity="1" transform="matrix(1,0,0,1,1485,1050)" stroke-linecap="round" font-weight="400" font-family="Sans Serif" font-style="normal" font-size="31.75">
    <path vector-effect="none" d="M-560,154 C-560,162.284 -566.716,169 -575,169 C-583.284,169 -590,162.284 -590,154 C-590,145.716 -583.284,139 -575,139 C-566.716,139 -560,145.716 -560,154 " fill-rule="evenodd"/>
   </g>
   <g fill="none" stroke-width="7" stroke="#000000" stroke-linejoin="bevel" stroke-opacity="1" transform="matrix(1,0,0,1,1485,1050)" stroke-linecap="round" font-weight="400" font-family="Sans Serif" font-style="normal" font-size="31.75">
    <path vector-effect="none" d="M-666.5,35 C-666.5,41.9036 -672.096,47.5 -679,47.5 C-685.904,47.5 -691.5,41.9036 -691.5,35 C-691.5,28.0964 -685.904,22.5 -679,22.5 C-672.096,22.5 -666.5,28.0964 -666.5,35 " fill-rule="evenodd"/>
   </g>
   <g fill="none" stroke-width="7" stroke="#000000" stroke-linejoin="bevel" stroke-opacity="1" transform="matrix(1,0,0,1,1485,1050)" stroke-linecap="round" font-weight="400" font-family="Sans Serif" font-style="normal" font-size="31.75">
    <path vector-effect="none" d="M-641.244,15.6784 L-559.47,15.6784" fill-rule="evenodd"/>
   </g>
   <g fill="none" stroke-width="7" stroke="#000000" stroke-linejoin="bevel" stroke-opacity="1" transform="matrix(1,0,0,1,1485,1050)" stroke-linecap="round" font-weight="400" font-family="Sans Serif" font-style="normal" font-size="31.75">
    <path vector-effect="none" d="M-550.992,24.1562 C-550.992,19.474 -554.788,15.6784 -559.47,15.6784 " fill-rule="evenodd"/>
   </g>
   <g fill="none" stroke-width="7" stroke="#000000" stroke-linejoin="bevel" stroke-opacity="1" transform="matrix(1,0,0,1,1485,1050)" stroke-linecap="round" font-weight="400" font-family="Sans Serif" font-style="normal" font-size="31.75">
    <path vector-effect="none" d="M-550.992,24.1562 L-550.992,44.1562" fill-rule="evenodd"/>
   </g>
   <g fill="none" stroke-width="7" stroke="#000000" stroke-linejoin="bevel" stroke-opacity="1" transform="matrix(1,0,0,1,1485,1050)" stroke-linecap="round" font-weight="400" font-family="Sans Serif" font-style="normal" font-size="31.75">
    <path vector-effect="none" d="M-559.47,52.6339 C-554.788,52.6339 -550.992,48.8383 -550.992,44.1562 " fill-rule="evenodd"/>
   </g>
   <g fill="none" stroke-width="7" stroke="#000000" stroke-linejoin="bevel" stroke-opacity="1" transform="matrix(1,0,0,1,1485,1050)" stroke-linecap="round" font-weight="400" font-family="Sans Serif" font-style="normal" font-size="31.75">
    <path vector-effect="none" d="M-559.47,52.6339 L-641.244,52.6339" fill-rule="evenodd"/>
   </g>
   <g fill="none" stroke-width="7" stroke="#000000" stroke-linejoin="bevel" stroke-opacity="1" transform="matrix(1,0,0,1,1485,1050)" stroke-linecap="round" font-weight="400" font-family="Sans Serif" font-style="normal" font-size="31.75">
    <path vector-effect="none" d="M-649.722,44.1562 C-649.722,48.8383 -645.926,52.6339 -641.244,52.6339 " fill-rule="evenodd"/>
   </g>
   <g fill="none" stroke-width="7" stroke="#000000" stroke-linejoin="bevel" stroke-opacity="1" transform="matrix(1,0,0,1,1485,1050)" stroke-linecap="round" font-weight="400" font-family="Sans Serif" font-style="normal" font-size="31.75">
    <path vector-effect="none" d="M-649.722,44.1562 L-649.722,24.1562" fill-rule="evenodd"/>
   </g>
   <g fill="none" stroke-width="7" stroke="#000000" stroke-linejoin="bevel" stroke-opacity="1" transform="matrix(1,0,0,1,1485,1050)" stroke-linecap="round" font-weight="400" font-family="Sans Serif" font-style="normal" font-size="31.75">
    <path vector-effect="none" d="M-641.244,15.6784 C-645.926,15.6784 -649.722,19.474 -649.722,24.1562 " fill-rule="evenodd"/>
   </g>
   <g fill="none" stroke-width="7" stroke="#000000" stroke-linejoin="bevel" stroke-opacity="1" transform="matrix(1,0,0,1,1485,1050)" stroke-linecap="round" font-weight="400" font-family="Sans Serif" font-style="normal" font-size="31.75">
    <path vector-effect="none" d="M-508.5,35 C-508.5,41.9036 -514.096,47.5 -521,47.5 C-527.904,47.5 -533.5,41.9036 -533.5,35 C-533.5,28.0964 -527.904,22.5 -521,22.5 C-514.096,22.5 -508.5,28.0964 -508.5,35 " fill-rule="evenodd"/>
   </g>
   <g fill="none" stroke-width="7" stroke="#000000" stroke-linejoin="bevel" stroke-opacity="1" transform="matrix(1,0,0,1,1485,1050)" stroke-linecap="round" font-weight="400" font-family="Sans Serif" font-style="normal" font-size="31.75">
    <path vector-effect="none" d="M5,88 C5,96.2843 -1.71573,103 -10,103 C-18.2843,103 -25,96.2843 -25,88 C-25,79.7157 -18.2843,73 -10,73 C-1.71573,73 5,79.7157 5,88 " fill-rule="evenodd"/>
   </g>
   <g fill="none" stroke-width="7" stroke="#000000" stroke-linejoin="bevel" stroke-opacity="1" transform="matrix(1,0,0,1,1485,1050)" stroke-linecap="round" font-weight="400" font-family="Sans Serif" font-style="normal" font-size="31.75">
    <path vector-effect="none" d="M-685,-45 C-685,-36.7157 -691.716,-30 -700,-30 C-708.284,-30 -715,-36.7157 -715,-45 C-715,-53.2843 -708.284,-60 -700,-60 C-691.716,-60 -685,-53.2843 -685,-45 " fill-rule="evenodd"/>
   </g>
   <g fill="none" stroke-width="7" stroke="#000000" stroke-linejoin="bevel" stroke-opacity="1" transform="matrix(1,0,0,1,1485,1050)" stroke-linecap="round" font-weight="400" font-family="Sans Serif" font-style="normal" font-size="31.75">
    <path vector-effect="none" d="M-670,-80 L-530,-80" fill-rule="evenodd"/>
   </g>
   <g fill="none" stroke-width="7" stroke="#000000" stroke-linejoin="bevel" stroke-opacity="1" transform="matrix(1,0,0,1,1485,1050)" stroke-linecap="round" font-weight="400" font-family="Sans Serif" font-style="normal" font-size="31.75">
    <path vector-effect="none" d="M-530,-80 L-530,-10" fill-rule="evenodd"/>
   </g>
   <g fill="none" stroke-width="7" stroke="#000000" stroke-linejoin="bevel" stroke-opacity="1" transform="matrix(1,0,0,1,1485,1050)" stroke-linecap="round" font-weight="400" font-family="Sans Serif" font-style="normal" font-size="31.75">
    <path vector-effect="none" d="M-530,-10 L-670,-10" fill-rule="evenodd"/>
   </g>
   <g fill="none" stroke-width="7" stroke="#000000" stroke-linejoin="bevel" stroke-opacity="1" transform="matrix(1,0,0,1,1485,1050)" stroke-linecap="round" font-weight="400" font-family="Sans Serif" font-style="normal" font-size="31.75">
    <path vector-effect="none" d="M-670,-10 L-670,-80" fill-rule="evenodd"/>
   </g>
   <g fill="none" stroke-width="7" stroke="#000000" stroke-linejoin="bevel" stroke-opacity="1" transform="matrix(1,0,0,1,1485,1050)" stroke-linecap="round" font-weight="400" font-family="Sans Serif" font-style="normal" font-size="31.75">
    <path vector-effect="none" d="M-485,-45 C-485,-36.7157 -491.716,-30 -500,-30 C-508.284,-30 -515,-36.7157 -515,-45 C-515,-53.2843 -508.284,-60 -500,-60 C-491.716,-60 -485,-53.2843 -485,-45 " fill-rule="evenodd"/>
   </g>
   <g fill="none" stroke-width="7" stroke="#000000" stroke-linejoin="bevel" stroke-opacity="1" transform="matrix(1,0,0,1,1485,1050)" stroke-linecap="round" font-weight="400" font-family="Sans Serif" font-style="normal" font-size="31.75">
    <path vector-effect="none" d="M-231,-11 C-231,5.56854 -244.431,19 -261,19 C-277.569,19 -291,5.56854 -291,-11 C-291,-27.5685 -277.569,-41 -261,-41 C-244.431,-41 -231,-27.5685 -231,-11 " fill-rule="evenodd"/>
   </g>
   <g fill="none" stroke-width="7" stroke="#000000" stroke-linejoin="bevel" stroke-opacity="1" transform="matrix(1,0,0,1,1485,1050)" stroke-linecap="round" font-weight="400" font-family="Sans Serif" font-style="normal" font-size="31.75">
    <path vector-effect="none" d="M712.5,135 C712.5,141.904 706.904,147.5 700,147.5 C693.096,147.5 687.5,141.904 687.5,135 C687.5,128.096 693.096,122.5 700,122.5 C706.904,122.5 712.5,128.096 712.5,135 " fill-rule="evenodd"/>
   </g>
   <g fill="none" stroke-width="7" stroke="#000000" stroke-linejoin="bevel" stroke-opacity="1" transform="matrix(1,0,0,1,1485,1050)" stroke-linecap="round" font-weight="400" font-family="Sans Serif" font-style="normal" font-size="31.75">
    <path vector-effect="none" d="M-687.5,135 C-687.5,141.904 -693.096,147.5 -700,147.5 C-706.904,147.5 -712.5,141.904 -712.5,135 C-712.5,128.096 -706.904,122.5 -700,122.5 C-693.096,122.5 -687.5,128.096 -687.5,135 " fill-rule="evenodd"/>
   </g>
   <g fill="none" stroke-width="7" stroke="#000000" stroke-linejoin="bevel" stroke-opacity="1" transform="matrix(1,0,0,1,1485,1050)" stroke-linecap="round" font-weight="400" font-family="Sans Serif" font-style="normal" font-size="31.75">
    <path vector-effect="none" d="M-685,135 C-685,143.284 -691.716,150 -700,150 C-708.284,150 -715,143.284 -715,135 C-715,126.716 -708.284,120 -700,120 C-691.716,120 -685,126.716 -685,135 " fill-rule="evenodd"/>
   </g>
   <g fill="none" stroke-width="7" stroke="#000000" stroke-linejoin="bevel" stroke-opacity="1" transform="matrix(1,0,0,1,1485,1050)" stroke-linecap="round" font-weight="400" font-family="Sans Serif" font-style="normal" font-size="31.75">
    <path vector-effect="none" d="M-685,-165 C-685,-156.716 -691.716,-150 -700,-150 C-708.284,-150 -715,-156.716 -715,-165 C-715,-173.284 -708.284,-180 -700,-180 C-691.716,-180 -685,-173.284 -685,-165 " fill-rule="evenodd"/>
   </g>
   <g fill="none" stroke-width="7" stroke="#000000" stroke-linejoin="bevel" stroke-opacity="1" transform="matrix(1,0,0,1,1485,1050)" stroke-linecap="round" font-weight="400" font-family="Sans Serif" font-style="normal" font-size="31.75">
    <path vector-effect="none" d="M715,135 C715,143.284 708.284,150 700,150 C691.716,150 685,143.284 685,135 C685,126.716 691.716,120 700,120 C708.284,120 715,126.716 715,135 " fill-rule="evenodd"/>
   </g>
   <g fill="none" stroke-width="7" stroke="#000000" stroke-linejoin="bevel" stroke-opacity="1" transform="matrix(1,0,0,1,1485,1050)" stroke-linecap="round" font-weight="400" font-family="Sans Serif" font-style="normal" font-size="31.75">
    <path vector-effect="none" d="M715,-165 C715,-156.716 708.284,-150 700,-150 C691.716,-150 685,-156.716 685,-165 C685,-173.284 691.716,-180 700,-180 C708.284,-180 715,-173.284 715,-165 " fill-rule="evenodd"/>
   </g>
   <g fill="none" stroke-width="7" stroke="#000000" stroke-linejoin="bevel" stroke-opacity="1" transform="matrix(1,0,0,1,1485,1050)" stroke-linecap="round" font-weight="400" font-family="Sans Serif" font-style="normal" font-size="31.75">
    <path vector-effect="none" d="M-22.6886,80 L2.68858,80" fill-rule="evenodd"/>
   </g>
   <g fill="none" stroke-width="7" stroke="#000000" stroke-linejoin="bevel" stroke-opacity="1" transform="matrix(1,0,0,1,1485,1050)" stroke-linecap="round" font-weight="400" font-family="Sans Serif" font-style="normal" font-size="31.75">
    <path vector-effect="none" d="M4.69694,85 L-24.6969,85" fill-rule="evenodd"/>
   </g>
  </g>
 </g>
</svg>
