<?xml version="1.0"?>
<!DOCTYPE svg PUBLIC "-//W3C//DTD SVG 1.1//EN" "http://www.w3.org/Graphics/SVG/1.1/DTD/svg11.dtd">
<svg width="145.86mm" height="2.860000000000028mm" viewBox="0 0 145.86 2.860000000000028" xmlns="http://www.w3.org/2000/svg" version="1.1">
<g id="Sketch010" transform="translate(72.930000,-79.465657) scale(1,-1)">
<circle cx="-70.0" cy="-80.89565712474621" r="1.5" stroke="#000000" stroke-width="0.35 px" style="stroke-width:0.35;stroke-miterlimit:4;stroke-dasharray:none;stroke-linecap:square;fill:none"/>
<circle cx="70.0" cy="-80.89565712474621" r="1.5" stroke="#000000" stroke-width="0.35 px" style="stroke-width:0.35;stroke-miterlimit:4;stroke-dasharray:none;stroke-linecap:square;fill:none"/>
<circle cx="70.0" cy="-80.8956571247462" r="1.5" stroke="#000000" stroke-width="0.35 px" style="stroke-width:0.35;stroke-miterlimit:4;stroke-dasharray:none;stroke-linecap:square;fill:none"/>
<circle cx="-70.0" cy="-80.8956571247462" r="1.5" stroke="#000000" stroke-width="0.35 px" style="stroke-width:0.35;stroke-miterlimit:4;stroke-dasharray:none;stroke-linecap:square;fill:none"/>
<circle cx="-57.5" cy="-80.8956571247462" r="1.5" stroke="#000000" stroke-width="0.35 px" style="stroke-width:0.35;stroke-miterlimit:4;stroke-dasharray:none;stroke-linecap:square;fill:none"/>
<circle cx="-1.0" cy="-80.8956571247462" r="1.5" stroke="#000000" stroke-width="0.35 px" style="stroke-width:0.35;stroke-miterlimit:4;stroke-dasharray:none;stroke-linecap:square;fill:none"/>
<circle cx="-26.1" cy="-80.8956571247462" r="3.0" stroke="#000000" stroke-width="0.35 px" style="stroke-width:0.35;stroke-miterlimit:4;stroke-dasharray:none;stroke-linecap:square;fill:none"/>
<path id="Sketch010_w0007"  d="M -67.0 -80.8956571247462 L -53.0 -80.8956571247462 L -53.0 -80.8956571247462 L -67.0 -80.8956571247462 L -67.0 -80.8956571247462 " stroke="#000000" stroke-width="0.35 px" style="stroke-width:0.35;stroke-miterlimit:4;stroke-dasharray:none;stroke-linecap:square;fill:none;fill-opacity:1;fill-rule: evenodd"/>
<circle cx="-70.0" cy="-80.8956571247462" r="1.5" stroke="#000000" stroke-width="0.35 px" style="stroke-width:0.35;stroke-miterlimit:4;stroke-dasharray:none;stroke-linecap:square;fill:none"/>
<circle cx="-50.0" cy="-80.8956571247462" r="1.5" stroke="#000000" stroke-width="0.35 px" style="stroke-width:0.35;stroke-miterlimit:4;stroke-dasharray:none;stroke-linecap:square;fill:none"/>
<path id="Sketch010_w0010"  d="M -64.12442161303846 -80.8956571247462 A 0.847778 0.847778 0 0 1 -18.0844 -64.9722L -64.97219914529653 -80.8956571247462 A 0.847778 0.847778 0 0 1 -15.2366 -64.1244L -55.94701567741936 -80.8956571247462 A 0.847778 0.847778 0 0 1 -16.0844 -55.0992L -55.09923814516129 -80.8956571247462 A 0.847778 0.847778 0 0 1 -18.9322 -55.947L -64.12442161303846 -80.8956571247462 " stroke="#000000" stroke-width="0.35 px" style="stroke-width:0.35;stroke-miterlimit:4;stroke-dasharray:none;stroke-linecap:square;fill:none;fill-opacity:1;fill-rule: evenodd"/>
<circle cx="-67.9" cy="-80.8956571247462" r="1.25" stroke="#000000" stroke-width="0.35 px" style="stroke-width:0.35;stroke-miterlimit:4;stroke-dasharray:none;stroke-linecap:square;fill:none"/>
<circle cx="-52.1" cy="-80.8956571247462" r="1.25" stroke="#000000" stroke-width="0.35 px" style="stroke-width:0.35;stroke-miterlimit:4;stroke-dasharray:none;stroke-linecap:square;fill:none"/>
<title>b'Sketch010'</title>
</g>
</svg>