<?xml version="1.0" encoding="UTF-8" standalone="no"?>
<svg
   viewBox="0 0 793.7007874015749 1122.5196850393702"
   width="793.7007874015749"
   height="1122.5196850393702"
   version="1.1"
   id="svg92"
   sodipodi:docname="Лицевая.svg"
   inkscape:version="1.1.2 (0a00cf5339, 2022-02-04)"
   xmlns:inkscape="http://www.inkscape.org/namespaces/inkscape"
   xmlns:sodipodi="http://sodipodi.sourceforge.net/DTD/sodipodi-0.dtd"
   xmlns="http://www.w3.org/2000/svg"
   xmlns:svg="http://www.w3.org/2000/svg">
  <sodipodi:namedview
     id="namedview94"
     pagecolor="#ffffff"
     bordercolor="#666666"
     borderopacity="1.0"
     inkscape:pageshadow="2"
     inkscape:pageopacity="0.0"
     inkscape:pagecheckerboard="0"
     showgrid="false"
     inkscape:zoom="1.4142136"
     inkscape:cx="331.98663"
     inkscape:cy="348.25009"
     inkscape:window-width="1920"
     inkscape:window-height="1008"
     inkscape:window-x="0"
     inkscape:window-y="0"
     inkscape:window-maximized="1"
     inkscape:current-layer="g90"
     showguides="true"
     inkscape:guide-bbox="true">
    <sodipodi:guide
       position="62.592515,964.96779"
       orientation="1,0"
       id="guide156119" />
  </sodipodi:namedview>
  <desc
     id="desc2">Лицевая.dxf - scale = 1.0, origin = (0.0, 0.0), method = manual</desc>
  <defs
     id="defs16">
    <marker
       id="DistanceX"
       orient="auto"
       refX="0.0"
       refY="0.0"
       style="overflow:visible">
      <path
         d="M 3,-3 L -3,3 M 0,-5 L  0,5"
         style="stroke:#000000; stroke-width:0.5"
         id="path4" />
    </marker>
    <pattern
       id="Hatch"
       patternUnits="userSpaceOnUse"
       width="8"
       height="8"
       x="0"
       y="0">
      <path
         d="M8 4 l-4,4"
         stroke="#000000"
         stroke-width="0.25"
         linecap="square"
         id="path7" />
      <path
         d="M6 2 l-4,4"
         stroke="#000000"
         stroke-width="0.25"
         linecap="square"
         id="path9" />
      <path
         d="M4 0 l-4,4"
         stroke="#000000"
         stroke-width="0.25"
         linecap="square"
         id="path11" />
    </pattern>
    <symbol
       id="*MODEL_SPACE" />
    <symbol
       id="*PAPER_SPACE" />
  </defs>
  <g
     inkscape:groupmode="layer"
     inkscape:label="0"
     id="g18" />
  <g
     inkscape:groupmode="layer"
     inkscape:label="View"
     id="g90">
    <path
       style="fill:none;stroke:#000000;stroke-width:0.1;stroke-miterlimit:4;stroke-dasharray:none"
       d="M 62.592516,157.55189 H 735.34852"
       id="path20" />
    <path
       style="fill:none;stroke:#000000;stroke-width:0.1;stroke-miterlimit:4;stroke-dasharray:none"
       d="m 62.592516,365.42589 v -207.874"
       id="path22" />
    <path
       style="fill:none;stroke:#000000;stroke-width:0.1;stroke-miterlimit:4;stroke-dasharray:none"
       d="m 735.34852,157.55189 v 207.874"
       id="path24" />
    <path
       style="fill:none;stroke:#000000;stroke-width:0.1;stroke-miterlimit:4;stroke-dasharray:none"
       d="M 735.34852,365.42589 H 62.592516"
       id="path26" />
    <path
       d="m 87.159336,320.07186 a 5.6692915,5.6692915 0 1 0 -11.33858,0 5.6692915,5.6692915 0 1 0 11.33858,0 z"
       style="fill:#000000;fill-opacity:0.510831;stroke:#000000;stroke-width:0.1;stroke-miterlimit:4;stroke-dasharray:none"
       id="path28" />
    <path
       d="m 187.31682,321.58367 a 5.669291,5.669291 0 1 0 -11.33858,0 5.669291,5.669291 0 1 0 11.33858,0 z"
       style="fill:#000000;fill-opacity:0.510831;stroke:#000000;stroke-width:0.1;stroke-miterlimit:4;stroke-dasharray:none"
       id="path30" />
    <path
       d="m 236.45068,284.16635 a 18.89764,18.89764 0 1 0 -37.79528,0 18.89764,18.89764 0 1 0 37.79528,0 z"
       style="fill:#000000;fill-opacity:0.510831;stroke:#000000;stroke-width:0.1;stroke-miterlimit:4;stroke-dasharray:none"
       id="path32" />
    <path
       d="m 400.86013,321.58367 a 5.669295,5.669295 0 1 0 -11.33859,0 5.669295,5.669295 0 1 0 11.33859,0 z"
       style="fill:#000000;fill-opacity:0.510831;stroke:#000000;stroke-width:0.1;stroke-miterlimit:4;stroke-dasharray:none"
       id="path34" />
    <path
       d="m 289.36406,284.16635 a 18.897638,18.897638 0 1 0 -37.79527,0 18.897638,18.897638 0 1 0 37.79527,0 z"
       style="fill:#000000;fill-opacity:0.510831;stroke:#000000;stroke-width:0.1;stroke-miterlimit:4;stroke-dasharray:none"
       id="path36" />
    <path
       d="m 370.05698,284.16635 a 4.72441,4.72441 0 1 0 -9.44882,0 4.72441,4.72441 0 1 0 9.44882,0 z"
       style="fill:#000000;fill-opacity:0.510831;stroke:#000000;stroke-width:0.1;stroke-miterlimit:4;stroke-dasharray:none"
       id="path38" />
    <path
       d="m 414.14139,291.72534 a 1.83566,1.83566 0 0 0 1.83566,-1.83566"
       style="fill:#000000;fill-opacity:0.510831;stroke:#000000;stroke-width:0.1;stroke-miterlimit:4;stroke-dasharray:none"
       id="path40" />
    <path
       style="fill:#000000;fill-opacity:0.510831;stroke:#000000;stroke-width:0.1;stroke-miterlimit:4;stroke-dasharray:none"
       d="m 376.54252,291.72589 h 37.599"
       id="path42" />
    <path
       d="m 374.40462,289.58732 a 2.138022,2.138022 0 0 0 2.13803,2.13802"
       style="fill:#000000;fill-opacity:0.510831;stroke:#000000;stroke-width:0.1;stroke-miterlimit:4;stroke-dasharray:none"
       id="path44" />
    <path
       style="fill:#000000;fill-opacity:0.510831;stroke:#000000;stroke-width:0.1;stroke-miterlimit:4;stroke-dasharray:none"
       d="m 374.40352,278.44389 v 11.143"
       id="path46" />
    <path
       d="m 376.24028,276.60848 a 1.83566,1.83566 0 0 0 -1.83566,1.83566"
       style="fill:#000000;fill-opacity:0.510831;stroke:#000000;stroke-width:0.1;stroke-miterlimit:4;stroke-dasharray:none"
       id="path48" />
    <path
       style="fill:#000000;fill-opacity:0.510831;stroke:#000000;stroke-width:0.1;stroke-miterlimit:4;stroke-dasharray:none"
       d="m 413.83952,276.60689 h -37.599"
       id="path50" />
    <path
       d="m 415.97705,278.7465 a 2.138022,2.138022 0 0 0 -2.13803,-2.13802"
       style="fill:#000000;fill-opacity:0.510831;stroke:#000000;stroke-width:0.1;stroke-miterlimit:4;stroke-dasharray:none"
       id="path52" />
    <path
       style="fill:#000000;fill-opacity:0.510831;stroke:#000000;stroke-width:0.1;stroke-miterlimit:4;stroke-dasharray:none"
       d="m 415.97852,289.88989 v -11.143"
       id="path54" />
    <path
       d="m 146.6869,259.22146 a 12.283465,12.283465 0 1 0 -24.56693,0 12.283465,12.283465 0 1 0 24.56693,0 z"
       style="fill:#000000;fill-opacity:0.510831;stroke:#000000;stroke-width:0.1;stroke-miterlimit:4;stroke-dasharray:none"
       id="path56" />
    <path
       d="m 236.45068,231.25296 a 18.89764,18.89764 0 1 0 -37.79528,0 18.89764,18.89764 0 1 0 37.79528,0 z"
       style="fill:#000000;fill-opacity:0.510831;stroke:#000000;stroke-width:0.1;stroke-miterlimit:4;stroke-dasharray:none"
       id="path58" />
    <path
       d="m 87.159336,202.9065 a 5.6692915,5.6692915 0 1 0 -11.33858,0 5.6692915,5.6692915 0 1 0 11.33858,0 z"
       style="fill:#000000;fill-opacity:0.510831;stroke:#000000;stroke-width:0.1;stroke-miterlimit:4;stroke-dasharray:none"
       id="path60" />
    <path
       d="m 289.36406,231.25296 a 18.897638,18.897638 0 1 0 -37.79527,0 18.897638,18.897638 0 1 0 37.79527,0 z"
       style="fill:#000000;fill-opacity:0.510831;stroke:#000000;stroke-width:0.1;stroke-miterlimit:4;stroke-dasharray:none"
       id="path62" />
    <path
       d="m 363.06485,231.25296 a 5.6692915,5.6692915 0 1 0 -11.33858,0 5.6692915,5.6692915 0 1 0 11.33858,0 z"
       style="fill:#000000;fill-opacity:0.510831;stroke:#000000;stroke-width:0.1;stroke-miterlimit:4;stroke-dasharray:none"
       id="path64" />
    <path
       d="m 371.94674,218.0248 a 3.212409,3.212409 0 0 0 -3.21241,3.21241"
       style="fill:#000000;fill-opacity:0.510831;stroke:#000000;stroke-width:0.1;stroke-miterlimit:4;stroke-dasharray:none"
       id="path66" />
    <path
       style="fill:#000000;fill-opacity:0.510831;stroke:#000000;stroke-width:0.1;stroke-miterlimit:4;stroke-dasharray:none"
       d="m 418.43452,218.02489 h -46.488"
       id="path68" />
    <path
       d="m 421.64734,221.23721 a 3.212409,3.212409 0 0 0 -3.21241,-3.21241"
       style="fill:#000000;fill-opacity:0.510831;stroke:#000000;stroke-width:0.1;stroke-miterlimit:4;stroke-dasharray:none"
       id="path70" />
    <path
       style="fill:#000000;fill-opacity:0.510831;stroke:#000000;stroke-width:0.1;stroke-miterlimit:4;stroke-dasharray:none"
       d="m 421.64752,240.73989 v -19.503"
       id="path72" />
    <path
       d="m 417.9058,244.48111 a 3.74154,3.74154 0 0 0 3.74154,-3.74154"
       style="fill:#000000;fill-opacity:0.510831;stroke:#000000;stroke-width:0.1;stroke-miterlimit:4;stroke-dasharray:none"
       id="path74" />
    <path
       style="fill:#000000;fill-opacity:0.510831;stroke:#000000;stroke-width:0.1;stroke-miterlimit:4;stroke-dasharray:none"
       d="m 372.47552,244.48089 h 45.43"
       id="path76" />
    <path
       d="m 368.73434,240.73957 a 3.74154,3.74154 0 0 0 3.74153,3.74154"
       style="fill:#000000;fill-opacity:0.510831;stroke:#000000;stroke-width:0.1;stroke-miterlimit:4;stroke-dasharray:none"
       id="path78" />
    <path
       style="fill:#000000;fill-opacity:0.510831;stroke:#000000;stroke-width:0.1;stroke-miterlimit:4;stroke-dasharray:none"
       d="m 368.73452,221.23689 v 19.503"
       id="path80" />
    <path
       d="m 429.77351,284.16635 a 4.72441,4.72441 0 1 0 -9.44882,0 4.72441,4.72441 0 1 0 9.44882,0 z"
       style="fill:#000000;fill-opacity:0.510831;stroke:#000000;stroke-width:0.1;stroke-miterlimit:4;stroke-dasharray:none"
       id="path82" />
    <path
       d="m 722.11997,320.07186 a 5.6692915,5.6692915 0 1 0 -11.33858,0 5.6692915,5.6692915 0 1 0 11.33858,0 z"
       style="fill:#000000;fill-opacity:0.510831;stroke:#000000;stroke-width:0.1;stroke-miterlimit:4;stroke-dasharray:none"
       id="path84" />
    <path
       d="m 438.6554,231.25296 a 5.6692915,5.6692915 0 1 0 -11.33858,0 5.6692915,5.6692915 0 1 0 11.33858,0 z"
       style="fill:#000000;fill-opacity:0.510831;stroke:#000000;stroke-width:0.1;stroke-miterlimit:4;stroke-dasharray:none"
       id="path86" />
    <path
       d="m 722.11997,202.9065 a 5.6692915,5.6692915 0 1 0 -11.33858,0 5.6692915,5.6692915 0 1 0 11.33858,0 z"
       style="fill:#000000;fill-opacity:0.510831;stroke:#000000;stroke-width:0.1;stroke-miterlimit:4;stroke-dasharray:none"
       id="path88" />
    <rect
       style="fill:#000000;fill-opacity:0.510831;fill-rule:evenodd;stroke:#ef0000;stroke-width:0.0999073;stroke-linejoin:round;stroke-miterlimit:4;stroke-dasharray:none"
       id="rect939"
       width="52.99704"
       height="26.453941"
       x="368.65311"
       y="218.02235"
       ry="3.3751051" />
    <rect
       style="fill:#000000;fill-opacity:0.510831;fill-rule:evenodd;stroke:#ef0000;stroke-width:0.0993403;stroke-linejoin:round;stroke-miterlimit:4;stroke-dasharray:none"
       id="rect1421"
       width="41.55265"
       height="15.110492"
       x="374.4137"
       y="276.61963"
       ry="2.1060364" />
    <rect
       style="fill:#000000;fill-opacity:0.510831;fill-rule:evenodd;stroke:#ef0000;stroke-width:0.1;stroke-linejoin:round;stroke-miterlimit:4;stroke-dasharray:none"
       id="rect1838"
       width="672.75598"
       height="207.87399"
       x="62.592518"
       y="157.5519" />
    <text
       xml:space="preserve"
       style="font-size:101.797px;line-height:1.25;font-family:sans-serif;stroke-width:9.54343"
       x="380.65012"
       y="187.23438"
       id="text121720"><tspan
         sodipodi:role="line"
         id="tspan121718"
         x="380.65012"
         y="187.23438"
         style="font-style:normal;font-variant:normal;font-weight:bold;font-stretch:normal;font-size:13.3333px;font-family:'DejaVu Sans';-inkscape-font-specification:'DejaVu Sans, Bold';font-variant-ligatures:normal;font-variant-caps:normal;font-variant-numeric:normal;font-variant-east-asian:normal;fill:#ffffff;fill-opacity:1;stroke-width:9.54343">USB</tspan></text>
    <text
       xml:space="preserve"
       style="font-style:normal;font-variant:normal;font-weight:bold;font-stretch:normal;font-size:13.3333px;line-height:1.25;font-family:'DejaVu Sans';-inkscape-font-specification:'DejaVu Sans, Bold';font-variant-ligatures:normal;font-variant-caps:normal;font-variant-numeric:normal;font-variant-east-asian:normal;fill:#ffffff;fill-opacity:1;stroke-width:9.54343"
       x="378.31613"
       y="212.98209"
       id="text121720-5"><tspan
         sodipodi:role="line"
         id="tspan154526"
         x="378.31613"
         y="212.98209">Host</tspan></text>
    <text
       xml:space="preserve"
       style="font-style:normal;font-variant:normal;font-weight:bold;font-stretch:normal;font-size:13.3333px;line-height:1.25;font-family:'DejaVu Sans';-inkscape-font-specification:'DejaVu Sans, Bold';font-variant-ligatures:normal;font-variant-caps:normal;font-variant-numeric:normal;font-variant-east-asian:normal;fill:#ffffff;fill-opacity:1;stroke-width:9.54343"
       x="218.92143"
       y="184.81978"
       id="text121720-5-7"><tspan
         sodipodi:role="line"
         id="tspan155820"
         x="218.92143"
         y="184.81978">Analog</tspan></text>
    <text
       xml:space="preserve"
       style="font-style:normal;font-variant:normal;font-weight:bold;font-stretch:normal;font-size:13.3333px;line-height:1.25;font-family:'DejaVu Sans';-inkscape-font-specification:'DejaVu Sans, Bold';font-variant-ligatures:normal;font-variant-caps:normal;font-variant-numeric:normal;font-variant-east-asian:normal;fill:#ffffff;fill-opacity:1;stroke-width:9.54343"
       x="237.118"
       y="213.4451"
       id="text121720-5-7-3"><tspan
         sodipodi:role="line"
         id="tspan155957"
         x="237.118"
         y="213.4451">In</tspan></text>
    <text
       xml:space="preserve"
       style="font-style:normal;font-variant:normal;font-weight:bold;font-stretch:normal;font-size:13.3333px;line-height:1.25;font-family:'DejaVu Sans';-inkscape-font-specification:'DejaVu Sans, Bold';font-variant-ligatures:normal;font-variant-caps:normal;font-variant-numeric:normal;font-variant-east-asian:normal;fill:#ffffff;fill-opacity:1;stroke-width:9.54343"
       x="230.65643"
       y="264.43628"
       id="text121720-5-7-2"><tspan
         sodipodi:role="line"
         id="tspan155977"
         x="230.65643"
         y="264.43628">Out</tspan></text>
    <text
       xml:space="preserve"
       style="font-style:normal;font-variant:normal;font-weight:bold;font-stretch:normal;font-size:10.6667px;line-height:1.25;font-family:'DejaVu Sans';-inkscape-font-specification:'DejaVu Sans, Bold';font-variant-ligatures:normal;font-variant-caps:normal;font-variant-numeric:normal;font-variant-east-asian:normal;fill:#ffffff;fill-opacity:1;stroke-width:9.54343"
       x="173.5708"
       y="336.29843"
       id="text121720-5-7-2-9"><tspan
         sodipodi:role="line"
         id="tspan156030"
         x="173.5708"
         y="336.29843">rst</tspan></text>
    <text
       xml:space="preserve"
       style="font-style:normal;font-variant:normal;font-weight:bold;font-stretch:normal;font-size:13.3333px;line-height:1.25;font-family:'DejaVu Sans';-inkscape-font-specification:'DejaVu Sans, Bold';font-variant-ligatures:normal;font-variant-caps:normal;font-variant-numeric:normal;font-variant-east-asian:normal;fill:#ffffff;fill-opacity:1;stroke-width:9.543;stroke-miterlimit:4;stroke-dasharray:none"
       x="374.80051"
       y="272.16208"
       id="text121720-5-8"><tspan
         sodipodi:role="line"
         id="tspan154506"
         x="374.80051"
         y="272.16208">Audio</tspan></text>
    <rect
       style="fill:none;fill-opacity:1;fill-rule:evenodd;stroke:#ffffff;stroke-width:1.01764;stroke-linejoin:round;stroke-miterlimit:4;stroke-dasharray:none;stroke-opacity:1"
       id="rect154550"
       width="99.547455"
       height="138.6086"
       x="346.05252"
       y="168.47729" />
    <rect
       style="fill:none;fill-opacity:1;fill-rule:evenodd;stroke:#ffffff;stroke-width:1.01764;stroke-linejoin:round;stroke-miterlimit:4;stroke-dasharray:none;stroke-opacity:1"
       id="rect154550-3"
       width="99.547455"
       height="138.6086"
       x="192.77913"
       y="168.47729" />
    <g
       inkscape:label="Слой 1"
       id="layer1"
       transform="matrix(0.88703548,0,0,0.88703548,585.13267,159.19427)"
       style="fill:#ffffff;fill-opacity:1">
      <path
         style="fill:#ffffff;fill-opacity:1;stroke-width:0.200881"
         d="M 26.577118,63.181364 23.588537,60.576033 V 46.828691 33.081349 l 3.000853,-2.730544 3.000853,-2.730543 h 15.075956 15.075957 l 2.858135,2.724236 2.858138,2.724237 v 13.724421 13.724422 l -2.895743,2.634558 -2.895745,2.634559 H 44.616321 29.5657 Z m 34.933359,-0.987986 2.685544,-2.442572 -0.0042,-13.044563 -0.0042,-13.044563 -2.713569,-2.349436 -2.713569,-2.349445 H 44.491382 30.22226 l -2.580456,2.346562 -2.580456,2.34657 v 13.012638 13.012639 l 2.577417,2.473558 2.577419,2.473549 14.304374,0.0042 14.304373,0.0042 z M 33.309085,57.309527 c -0.399679,-0.364325 -0.299877,-0.803405 0.375903,-1.653776 0.607749,-0.764768 1.954737,-1.568317 2.628967,-1.568317 0.559347,0 0.698116,-0.725031 0.958105,-5.005884 l 0.251604,-4.142839 -0.760879,-1.381995 c -0.869629,-1.579528 -2.731181,-4.281107 -3.188163,-4.626815 -0.16919,-0.128002 -0.307617,-0.450249 -0.307617,-0.716111 0,-0.629859 1.845984,-2.346511 2.523286,-2.346511 0.26366,0 3.046596,1.328562 6.184299,2.952349 3.137703,1.623788 6.651722,3.408644 7.80893,3.966334 3.751121,1.807776 5.795197,3.311635 6.123897,4.505431 0.308379,1.120005 -0.797206,3.050432 -2.55463,4.460547 -2.541138,2.03895 -9.162716,4.233024 -16.282752,5.395327 -2.775402,0.453073 -3.411802,0.480525 -3.76095,0.16226 z m 10.234556,-4.66529 c 2.072327,-0.44532 7.004808,-1.962014 7.765289,-2.387753 0.376093,-0.210553 0.683805,-0.463379 0.683805,-0.561841 0,-0.436789 -1.781358,-1.630019 -5.823037,-3.900531 -2.392478,-1.344043 -4.370948,-2.422865 -4.396598,-2.397391 -0.02565,0.02545 0.144685,0.693606 0.378523,1.484744 0.541155,1.830874 0.581517,4.948054 0.08604,6.644475 -0.189307,0.648137 -0.344192,1.2307 -0.344192,1.294592 0,0.162869 0.142901,0.1476 1.650175,-0.176295 z"
         id="path2932-9"
         sodipodi:nodetypes="ccccccccccccccccccccccccccccccccccsssscsssssssssssssscsssss" />
      <g
         id="g190954"
         style="fill:#ffffff;fill-opacity:1">
        <text
           xml:space="preserve"
           style="font-size:1.54307px;line-height:1.25;font-family:sans-serif;fill:#ffffff;fill-opacity:1;stroke-width:0.144662"
           x="68.158546"
           y="38.057095"
           id="text6837"><tspan
             sodipodi:role="line"
             style="font-style:normal;font-variant:normal;font-weight:bold;font-stretch:normal;font-size:15.4306px;font-family:Georgia;-inkscape-font-specification:'Georgia, Bold';font-variant-ligatures:normal;font-variant-caps:normal;font-variant-numeric:normal;font-variant-east-asian:normal;fill:#ffffff;fill-opacity:1;stroke-width:0.144662"
             x="68.158546"
             y="38.057095"
             id="tspan6841">D</tspan></text>
        <text
           xml:space="preserve"
           style="font-size:1.54307px;line-height:1.25;font-family:sans-serif;fill:#ffffff;fill-opacity:1;stroke-width:0.144662"
           x="81.505119"
           y="38.095634"
           id="text6837-9"><tspan
             sodipodi:role="line"
             style="font-style:normal;font-variant:normal;font-weight:normal;font-stretch:normal;font-size:10.5833px;font-family:'Arial Black';-inkscape-font-specification:'Arial Black, Normal';font-variant-ligatures:normal;font-variant-caps:normal;font-variant-numeric:normal;font-variant-east-asian:normal;fill:#ffffff;fill-opacity:1;stroke-width:0.144662"
             x="81.505119"
             y="38.095634"
             id="tspan6841-0">igital</tspan></text>
      </g>
      <g
         id="g190961"
         transform="translate(0,-0.52916667)"
         style="fill:#ffffff;fill-opacity:1">
        <g
           id="g148317"
           transform="translate(-1.710317)"
           style="fill:#ffffff;fill-opacity:1">
          <text
             xml:space="preserve"
             style="font-size:1.54307px;line-height:1.25;font-family:sans-serif;fill:#ffffff;fill-opacity:1;stroke-width:0.144662"
             x="82.927132"
             y="51.564384"
             id="text6837-9-9"><tspan
               sodipodi:role="line"
               style="font-style:normal;font-variant:normal;font-weight:normal;font-stretch:normal;font-size:10.5833px;font-family:'Arial Black';-inkscape-font-specification:'Arial Black, Normal';font-variant-ligatures:normal;font-variant-caps:normal;font-variant-numeric:normal;font-variant-east-asian:normal;fill:#ffffff;fill-opacity:1;stroke-width:0.144662"
               x="82.927132"
               y="51.564384"
               id="tspan6841-0-0">udio</tspan></text>
          <text
             xml:space="preserve"
             style="font-style:normal;font-variant:normal;font-weight:normal;font-stretch:normal;font-size:15.4306px;line-height:1.25;font-family:'Arial Black';-inkscape-font-specification:'Arial Black, Normal';font-variant-ligatures:normal;font-variant-caps:normal;font-variant-numeric:normal;font-variant-east-asian:normal;fill:#ffffff;fill-opacity:1;stroke-width:0.144662"
             x="71.029175"
             y="51.628559"
             id="text6837-8"><tspan
               sodipodi:role="line"
               id="tspan58142"
               x="71.029175"
               y="51.628559"
               style="font-style:normal;font-variant:normal;font-weight:bold;font-stretch:normal;font-size:15.4306px;font-family:Georgia;-inkscape-font-specification:'Georgia, Bold';font-variant-ligatures:normal;font-variant-caps:normal;font-variant-numeric:normal;font-variant-east-asian:normal;fill:#ffffff;fill-opacity:1;stroke-width:0.144662">A</tspan></text>
        </g>
      </g>
      <g
         id="g190967"
         style="fill:#ffffff;fill-opacity:1">
        <text
           xml:space="preserve"
           style="font-style:normal;font-variant:normal;font-weight:normal;font-stretch:normal;font-size:15.4306px;line-height:1.25;font-family:'Arial Black';-inkscape-font-specification:'Arial Black, Normal';font-variant-ligatures:normal;font-variant-caps:normal;font-variant-numeric:normal;font-variant-east-asian:normal;fill:#ffffff;fill-opacity:1;stroke-width:0.144662"
           x="69.341461"
           y="65.238998"
           id="text6837-6"><tspan
             sodipodi:role="line"
             id="tspan69217"
             x="69.341461"
             y="65.238998"
             style="font-style:normal;font-variant:normal;font-weight:bold;font-stretch:normal;font-size:15.4306px;font-family:Georgia;-inkscape-font-specification:'Georgia, Bold';font-variant-ligatures:normal;font-variant-caps:normal;font-variant-numeric:normal;font-variant-east-asian:normal;fill:#ffffff;fill-opacity:1;stroke-width:0.144662">W</tspan></text>
        <text
           xml:space="preserve"
           style="font-size:1.54307px;line-height:1.25;font-family:sans-serif;fill:#ffffff;fill-opacity:1;stroke-width:0.144662"
           x="84.623215"
           y="65.508949"
           id="text6837-9-2"><tspan
             sodipodi:role="line"
             style="font-style:normal;font-variant:normal;font-weight:normal;font-stretch:normal;font-size:10.5833px;font-family:'Arial Black';-inkscape-font-specification:'Arial Black, Normal';font-variant-ligatures:normal;font-variant-caps:normal;font-variant-numeric:normal;font-variant-east-asian:normal;fill:#ffffff;fill-opacity:1;stroke-width:0.144662"
             x="84.623215"
             y="65.508949"
             id="tspan6841-0-01">are</tspan></text>
      </g>
    </g>
  </g>
</svg>
